<svg width="35" height="26" viewBox="0 0 35 26" fill="none" xmlns="http://www.w3.org/2000/svg">
<g clip-path="url(#clip0_102_1867)">
<path d="M0.00561523 0H35.0056V26H0.00561523V0Z" fill="#3F9C35"/>
<path d="M0.00561523 0H35.0056V17.3333H0.00561523V0Z" fill="#ED2939"/>
<path d="M0.00561523 0H35.0056V8.66667H0.00561523V0Z" fill="#00B9E4"/>
<path d="M16.625 16.9C18.7996 16.9 20.5625 15.1539 20.5625 13C20.5625 10.8461 18.7996 9.09998 16.625 9.09998C14.4504 9.09998 12.6875 10.8461 12.6875 13C12.6875 15.1539 14.4504 16.9 16.625 16.9Z" fill="white"/>
<path d="M17.5 16.25C19.3122 16.25 20.7812 14.7949 20.7812 13C20.7812 11.2051 19.3122 9.75 17.5 9.75C15.6878 9.75 14.2188 11.2051 14.2188 13C14.2188 14.7949 15.6878 16.25 17.5 16.25Z" fill="#ED2939"/>
<path d="M21 10.8333L21.4211 11.9979L22.5477 11.4671L22.0117 12.5883L23.1875 13L22.0117 13.4171L22.5477 14.5329L21.4211 14.0021L21 15.1666L20.5789 14.0021L19.4523 14.5329L19.9883 13.4171L18.8125 13L19.9883 12.5829L19.4523 11.4671L20.5789 11.9979L21 10.8333Z" fill="white"/>
</g>
<defs>
<clipPath id="clip0_102_1867">
<rect width="35" height="26" fill="white"/>
</clipPath>
</defs>
</svg>
