<svg width="35" height="26" viewBox="0 0 35 26" fill="none" xmlns="http://www.w3.org/2000/svg">
<g clip-path="url(#clip0_102_1868)">
<path d="M-0.330078 -1H35.0001V26H-0.330078V-1Z" fill="#CE1720"/>
<mask id="mask0_102_1868" style="mask-type:luminance" maskUnits="userSpaceOnUse" x="-1" y="-1" width="8" height="27">
<path d="M-0.0541992 -1H5.78467V17.2399H6.01822V25.7598L5.78467 25.9998H-0.0541992V-1Z" fill="white"/>
</mask>
<g mask="url(#mask0_102_1868)">
<path d="M0.996709 -1V-0.580003H0.73396V-0.160005H0.412822V0.319992H0.179267V0.709989H-0.287842V-0.280005H0.179267V-0.820001H-0.287842V-1H0.996709ZM1.75576 1.30999V1.75998H1.52221V2.11998H1.28865V1.75998H1.0551V1.30999H0.821543V0.709989H1.0551V0.259992H1.28865V-0.100006H1.52221V0.259992H1.75576V0.709989H1.98932V1.30999H1.75576ZM1.25946 1.27999H1.5514V0.739989H1.25946V1.27999ZM0.500405 4.48997H0.73396V3.94997H0.500405V4.48997ZM2.0769 4.48997H2.31045V3.94997H2.0769V4.48997ZM-0.287842 8.14994H0.120879V8.53994H0.296045V9.01994H0.558794V9.46993H0.909126V9.01994H1.17187V8.53994H1.40543V8.14994H1.0551V7.69995H1.66818V7.99994H2.0477V8.50994H2.36884V9.07994H2.13529V9.49993H1.93093V9.88993H1.75576V10.3099H1.49301V10.6699H1.28865V10.9999H1.0259V11.4199H0.646377V10.9699H0.383628V10.5499H0.179267V10.2799H-0.287842V9.58993H0.179267V8.98994H-0.287842V8.14994Z" fill="white"/>
<path d="M4.73352 -1V-0.580003H4.99626V-0.160005H5.3174V0.319992H5.55096V0.709989H6.01807V-0.280005H5.55096V-0.820001H6.01807V-1H4.73352ZM3.97446 1.30999V1.75998H4.20802V2.11998H4.44157V1.75998H4.67513V1.30999H4.90868V0.709989H4.67513V0.259992H4.44157V-0.100006H4.20802V0.259992H3.97446V0.709989H3.74091V1.30999H3.97446ZM4.47077 1.27999H4.17882V0.739989H4.47077V1.27999ZM5.22982 4.48997H4.99626V3.94997H5.22982V4.48997ZM3.65333 4.48997H3.41977V3.94997H3.65333V4.48997ZM6.01807 8.14994H5.60935V8.53994H5.43418V9.01994H5.17143V9.46993H4.8211V9.01994H4.55835V8.53994H4.3248V8.14994H4.67513V7.69995H4.06205V7.99994H3.68252V8.50994H3.36138V9.07994H3.59494V9.49993H3.7993V9.88993H3.97446V10.3099H4.23721V10.6699H4.44157V10.9999H4.70432V11.4199H5.08385V10.9699H5.3466V10.5499H5.55096V10.2799H6.01807V9.58993H5.55096V8.98994H6.01807V8.14994Z" fill="white"/>
<path d="M2.74837 -1V-0.0400059H2.98192V-1H3.91614V-0.580003H3.68259V-0.160005H3.33225V0.319992H3.0987V0.709989H2.63159V0.319992H2.39804V-0.160005H2.0477V-0.580003H1.81415V-1H2.74837ZM2.68998 7.21995V6.88995H2.51481V6.49995H2.31045V6.07996H2.0769V5.65996H1.84334V5.35996H1.5806V4.93996H1.23026V5.35996H0.967514V5.65996H0.763154V6.07996H0.529599V6.49995H0.354433V6.88995H0.179267V7.39995H-0.287842V6.07996H0.179267V5.47996H-0.287842V4.48997H0.179267V4.90996H0.471211V5.32996H0.763154V4.90996H1.0551V4.48997H1.28865V3.94997H1.0551V3.52997H0.763154V3.10997H0.471211V3.52997H0.179267V3.94997H-0.287842V2.71998H0.179267V2.14998H-0.287842V1.30999H0.179267V1.69998H0.412822V2.17998H0.73396V2.56998H0.996709V3.01998H1.20107V3.37997H1.60979V3.01998H1.81415V2.56998H2.0769V2.17998H2.39804V1.69998H2.63159V1.30999H3.0987V1.69998H3.33225V2.17998H3.65339V2.56998H3.91614V3.01998H4.1205V3.37997H4.52922V3.01998H4.73358V2.56998H4.99633V2.17998H5.31747V1.69998H5.55102V1.30999H6.01813V2.14998H5.55102V2.71998H6.01813V3.94997H5.55102V3.52997H5.25908V3.10997H4.96714V3.52997H4.67519V3.94997H4.44164V4.48997H4.67519V4.90996H4.96714V5.32996H5.25908V4.90996H5.55102V4.48997H6.01813V5.47996H5.55102V6.07996H6.01813V7.39995H5.55102V6.88995H5.37586V6.49995H5.20069V6.07996H4.96714V5.65996H4.76278V5.35996H4.50003V4.93996H4.1497V5.35996H3.88695V5.65996H3.65339V6.07996H3.41984V6.49995H3.21548V6.88995H3.04031V7.21995H2.68998ZM2.74837 2.20998V3.01998H2.98192V2.20998H2.74837ZM2.63159 3.94997V3.52997H2.33965V3.10997H2.0477V3.52997H1.75576V3.94997H1.52221V4.48997H1.75576V4.90996H2.0477V5.32996H2.33965V4.90996H2.63159V4.48997H3.0987V4.90996H3.39064V5.32996H3.68259V4.90996H3.97453V4.48997H4.20809V3.94997H3.97453V3.52997H3.68259V3.10997H3.39064V3.52997H3.0987V3.94997H2.63159ZM2.74837 5.32996V6.13996H2.98192V5.32996H2.74837Z" fill="white"/>
<path d="M0.996709 25.9998V25.5798H0.73396V25.1598H0.412822V24.6798H0.179267V24.2898H-0.287842V25.2798H0.179267V25.8198H-0.287842V25.9998H0.996709ZM1.75576 23.6898V23.2398H1.52221V22.8798H1.28865V23.2398H1.0551V23.6898H0.821543V24.2898H1.0551V24.7398H1.28865V25.0998H1.52221V24.7398H1.75576V24.2898H1.98932V23.6898H1.75576ZM1.25946 23.7198H1.5514V24.2598H1.25946V23.7198ZM0.500405 20.5099H0.73396V21.0498H0.500405V20.5099ZM2.0769 20.5099H2.31045V21.0498H2.0769V20.5099ZM-0.287842 16.8499H0.120879V16.4599H0.296045V15.9799H0.558794V15.5299H0.909126V15.9799H1.17187V16.4599H1.40543V16.8499H1.0551V17.2999H1.66818V16.9999H2.0477V16.4899H2.36884V15.9199H2.13529V15.4999H1.93093V15.1099H1.75576V14.6899H1.49301V14.3299H1.28865V13.9999H1.0259V13.5799H0.646377V14.0299H0.383628V14.4499H0.179267V14.7199H-0.287842V15.4099H0.179267V16.0099H-0.287842V16.8499Z" fill="white"/>
<path d="M4.73352 25.9998V25.5798H4.99626V25.1598H5.3174V24.6798H5.55096V24.2898H6.01807V25.2798H5.55096V25.8198H6.01807V25.9998H4.73352ZM3.97446 23.6898V23.2398H4.20802V22.8798H4.44157V23.2398H4.67513V23.6898H4.90868V24.2898H4.67513V24.7398H4.44157V25.0998H4.20802V24.7398H3.97446V24.2898H3.74091V23.6898H3.97446ZM4.47077 23.7198H4.17882V24.2598H4.47077V23.7198ZM5.22982 20.5099H4.99626V21.0498H5.22982V20.5099ZM3.65333 20.5099H3.41977V21.0498H3.65333V20.5099ZM6.01807 16.8499H5.60935V16.4599H5.43418V15.9799H5.17143V15.5299H4.8211V15.9799H4.55835V16.4599H4.3248V16.8499H4.67513V17.2999H4.06205V16.9999H3.68252V16.4899H3.36138V15.9199H3.59494V15.4999H3.7993V15.1099H3.97446V14.6899H4.23721V14.3299H4.44157V13.9999H4.70432V13.5799H5.08385V14.0299H5.3466V14.4499H5.55096V14.7199H6.01807V15.4099H5.55096V16.0099H6.01807V16.8499Z" fill="white"/>
<path d="M2.74837 25.9998V25.0398H2.98192V25.9998H3.91614V25.5798H3.68259V25.1598H3.33225V24.6798H3.0987V24.2898H2.63159V24.6798H2.39804V25.1598H2.0477V25.5798H1.81415V25.9998H2.74837ZM2.68998 17.7799V18.1099H2.51481V18.4999H2.31045V18.9199H2.0769V19.3399H1.84334V19.6399H1.5806V20.0599H1.23026V19.6399H0.967514V19.3399H0.763154V18.9199H0.529599V18.4999H0.354433V18.1099H0.179267V17.5999H-0.287842V18.9199H0.179267V19.5199H-0.287842V20.5099H0.179267V20.0899H0.471211V19.6699H0.763154V20.0899H1.0551V20.5099H1.28865V21.0498H1.0551V21.4698H0.763154V21.8898H0.471211V21.4698H0.179267V21.0498H-0.287842V22.2798H0.179267V22.8498H-0.287842V23.6898H0.179267V23.2998H0.412822V22.8198H0.73396V22.4298H0.996709V21.9798H1.20107V21.6198H1.60979V21.9798H1.81415V22.4298H2.0769V22.8198H2.39804V23.2998H2.63159V23.6898H3.0987V23.2998H3.33225V22.8198H3.65339V22.4298H3.91614V21.9798H4.1205V21.6198H4.52922V21.9798H4.73358V22.4298H4.99633V22.8198H5.31747V23.2998H5.55102V23.6898H6.01813V22.8498H5.55102V22.2798H6.01813V21.0498H5.55102V21.4698H5.25908V21.8898H4.96714V21.4698H4.67519V21.0498H4.44164V20.5099H4.67519V20.0899H4.96714V19.6699H5.25908V20.0899H5.55102V20.5099H6.01813V19.5199H5.55102V18.9199H6.01813V17.5999H5.55102V18.1099H5.37586V18.4999H5.20069V18.9199H4.96714V19.3399H4.76278V19.6399H4.50003V20.0599H4.1497V19.6399H3.88695V19.3399H3.65339V18.9199H3.41984V18.4999H3.21548V18.1099H3.04031V17.7799H2.68998ZM2.74837 22.7898V21.9798H2.98192V22.7898H2.74837ZM2.63159 21.0498V21.4698H2.33965V21.8898H2.0477V21.4698H1.75576V21.0498H1.52221V20.5099H1.75576V20.0899H2.0477V19.6699H2.33965V20.0899H2.63159V20.5099H3.0987V20.0899H3.39064V19.6699H3.68259V20.0899H3.97453V20.5099H4.20809V21.0498H3.97453V21.4698H3.68259V21.8898H3.39064V21.4698H3.0987V21.0498H2.63159ZM2.74837 19.6699V18.8599H2.98192V19.6699H2.74837Z" fill="white"/>
<path d="M-0.287842 11.2399H0.179267V11.6599H0.383628V11.8999H0.617182V12.3199H0.821543V12.6799H0.617182V13.0999H0.383628V13.3399H0.179267V13.7599H-0.287842V11.2399ZM6.01813 11.2399V13.7599H5.55102V13.3399H5.34666V13.0999H5.11311V12.6799H4.90875V12.3199H5.11311V11.8999H5.34666V11.6599H5.55102V11.2399H6.01813ZM1.75576 12.7699H1.98932V12.2299H1.75576V12.7699ZM3.97453 12.7699V12.2299H3.74098V12.7699H3.97453ZM2.74837 10.9999H2.98192V10.4599H2.74837V10.9999ZM2.74837 13.9999V14.5399H2.98192V13.9999H2.74837ZM1.28865 11.7499H1.69737V11.4199H1.98932V11.1199H2.13529V10.8199H2.31045V10.3999H2.54401V9.9799H2.66079V9.5899H3.06951V9.9799H3.18628V10.3999H3.41984V10.8199H3.595V11.1199H3.74098V11.4199H4.03292V11.7499H4.44164V13.2499H4.03292V13.5799H3.74098V13.8799H3.595V14.1799H3.41984V14.5999H3.18628V15.0199H3.06951V15.4099H2.66079V15.0199H2.54401V14.5999H2.31045V14.1799H2.13529V13.8799H1.98932V13.5799H1.69737V13.2499H1.28865V11.7499ZM2.74837 12.0199V11.5699H2.51481V11.2699H2.28126V12.0199H2.51481V12.2899H2.66079V12.7099H2.51481V12.9799H2.28126V13.7299H2.51481V13.4299H2.74837V12.9799H2.98192V13.4299H3.21548V13.7299H3.44903V12.9799H3.21548V12.7099H3.06951V12.2899H3.21548V12.0199H3.44903V11.2699H3.21548V11.5699H2.98192V12.0199H2.74837Z" fill="white"/>
</g>
<path d="M5.74219 17H35V26H5.74219V17Z" fill="#007C30"/>
</g>
<defs>
<clipPath id="clip0_102_1868">
<rect width="35" height="26" fill="white"/>
</clipPath>
</defs>
</svg>
