<svg width="35" height="26" viewBox="0 0 35 26" fill="none" xmlns="http://www.w3.org/2000/svg">
<g clip-path="url(#clip0_102_1864)">
<path d="M0 0H35V26H0V0Z" fill="#00ABC2"/>
<path d="M18.9109 14.4196C20.8623 14.4196 22.4442 12.8528 22.4442 10.92C22.4442 8.98723 20.8623 7.42041 18.9109 7.42041C16.9596 7.42041 15.3777 8.98723 15.3777 10.92C15.3777 12.8528 16.9596 14.4196 18.9109 14.4196Z" fill="#FFEC2D"/>
<path d="M18.9111 6.9446C19.1211 6.942 19.1998 6.812 19.1998 6.656C19.1998 6.448 18.9111 5.4574 18.9111 5.4574C18.9111 5.4574 18.6223 6.448 18.6223 6.656C18.6223 6.812 18.7011 6.9446 18.9111 6.9446Z" fill="#FFEC2D"/>
<path d="M22.9248 10.92C22.9274 11.128 23.0586 11.206 23.2161 11.206C23.4261 11.206 24.4263 10.92 24.4263 10.92C24.4263 10.92 23.4261 10.634 23.2161 10.634C23.0586 10.634 22.9248 10.712 22.9248 10.92Z" fill="#FFEC2D"/>
<path d="M18.9112 14.8954C18.7012 14.898 18.6225 15.028 18.6225 15.184C18.6225 15.392 18.9112 16.3826 18.9112 16.3826C18.9112 16.3826 19.2 15.392 19.2 15.184C19.2 15.028 19.1212 14.8954 18.9112 14.8954Z" fill="#FFEC2D"/>
<path d="M14.8975 10.92C14.8949 10.712 14.7636 10.634 14.6061 10.634C14.3961 10.634 13.396 10.92 13.396 10.92C13.396 10.92 14.3961 11.206 14.6061 11.206C14.7636 11.206 14.8975 11.128 14.8975 10.92Z" fill="#FFEC2D"/>
<path d="M20.4361 7.2415C20.6233 7.32284 20.7452 7.23513 20.8078 7.09219C20.8912 6.90161 21.0325 5.87885 21.0325 5.87885C21.0325 5.87885 20.3794 6.67137 20.296 6.86195C20.2334 7.00488 20.25 7.15778 20.4361 7.2415Z" fill="#FFEC2D"/>
<path d="M22.6276 12.4323C22.5435 12.6189 22.6309 12.7398 22.7747 12.8014C22.9664 12.8835 23.9981 13.0195 23.9981 13.0195C23.9981 13.0195 23.204 12.3732 23.0123 12.2911C22.8686 12.2295 22.714 12.2467 22.6276 12.4323Z" fill="#FFEC2D"/>
<path d="M17.3861 14.5985C17.199 14.5171 17.0771 14.6048 17.0145 14.7478C16.9311 14.9384 16.7898 15.9611 16.7898 15.9611C16.7898 15.9611 17.4429 15.1686 17.5263 14.978C17.5888 14.8351 17.5722 14.6822 17.3861 14.5985Z" fill="#FFEC2D"/>
<path d="M15.1947 9.4077C15.2787 9.2211 15.1913 9.10018 15.0476 9.03858C14.8559 8.95644 13.8241 8.82045 13.8241 8.82045C13.8241 8.82045 14.6182 9.46678 14.8099 9.54891C14.9537 9.61051 15.1083 9.59328 15.1947 9.4077Z" fill="#FFEC2D"/>
<path d="M21.7491 8.10894C21.8995 8.25418 22.048 8.21741 22.1594 8.10711C22.3078 7.96003 22.8109 7.05734 22.8109 7.05734C22.8109 7.05734 21.8995 7.55556 21.751 7.70264C21.6396 7.81295 21.6007 7.96187 21.7491 8.10894Z" fill="#FFEC2D"/>
<path d="M21.7492 13.731C21.6026 13.8799 21.6397 14.027 21.7511 14.1373C21.8996 14.2844 22.811 14.7826 22.811 14.7826C22.811 14.7826 22.3079 13.8799 22.1594 13.7328C22.0481 13.6225 21.8977 13.5839 21.7492 13.731Z" fill="#FFEC2D"/>
<path d="M16.0731 13.731C15.9228 13.5858 15.7743 13.6226 15.6629 13.7329C15.5144 13.8799 15.0114 14.7826 15.0114 14.7826C15.0114 14.7826 15.9228 14.2844 16.0713 14.1373C16.1826 14.027 16.2216 13.8781 16.0731 13.731Z" fill="#FFEC2D"/>
<path d="M16.073 8.10896C16.2197 7.96004 16.1825 7.81296 16.0712 7.70266C15.9227 7.55558 15.0113 7.05735 15.0113 7.05735C15.0113 7.05735 15.5143 7.96004 15.6628 8.10712C15.7742 8.21743 15.9245 8.25604 16.073 8.10896Z" fill="#FFEC2D"/>
<path d="M22.6274 9.40773C22.7162 9.59228 22.8684 9.61053 23.0122 9.54893C23.2039 9.4668 23.998 8.82048 23.998 8.82048C23.998 8.82048 22.9662 8.95647 22.7746 9.0386C22.6308 9.1002 22.541 9.22215 22.6274 9.40773Z" fill="#FFEC2D"/>
<path d="M20.4361 14.5984C20.251 14.6845 20.2334 14.835 20.2959 14.978C20.3793 15.1686 21.0324 15.9611 21.0324 15.9611C21.0324 15.9611 20.8911 14.9383 20.8077 14.7477C20.7451 14.6048 20.6222 14.5147 20.4361 14.5984Z" fill="#FFEC2D"/>
<path d="M15.1946 12.4322C15.1058 12.2477 14.9536 12.2294 14.8098 12.291C14.6181 12.3732 13.824 13.0195 13.824 13.0195C13.824 13.0195 14.8558 12.8835 15.0475 12.8014C15.1912 12.7398 15.281 12.6178 15.1946 12.4322Z" fill="#FFEC2D"/>
<path d="M17.3859 7.24154C17.571 7.15544 17.5887 7.00493 17.5261 6.86199C17.4427 6.67141 16.7896 5.8789 16.7896 5.8789C16.7896 5.8789 16.9309 6.90165 17.0143 7.09223C17.0769 7.23517 17.1998 7.32527 17.3859 7.24154Z" fill="#FFEC2D"/>
<path d="M19.6608 7.00427C19.8407 7.0552 19.94 6.95079 19.9786 6.80146C20.03 6.60236 20.0282 5.58071 20.0282 5.58071C20.0282 5.58071 19.537 6.45548 19.4856 6.65458C19.447 6.8039 19.4815 6.95086 19.6608 7.00427Z" fill="#FFEC2D"/>
<path d="M22.8731 11.6612C22.8153 11.8383 22.9168 11.9366 23.0657 11.9751C23.2642 12.0264 24.2928 12.0282 24.2928 12.0282C24.2928 12.0282 23.4301 11.5411 23.2315 11.4898C23.0826 11.4513 22.9334 11.4847 22.8731 11.6612Z" fill="#FFEC2D"/>
<path d="M18.161 14.8358C17.9811 14.7848 17.8818 14.8892 17.8432 15.0386C17.7918 15.2377 17.7935 16.2593 17.7935 16.2593C17.7935 16.2593 18.2848 15.3845 18.3362 15.1854C18.3748 15.0361 18.3403 14.8892 18.161 14.8358Z" fill="#FFEC2D"/>
<path d="M14.9487 10.1788C15.0065 10.0017 14.905 9.90342 14.7561 9.86493C14.5575 9.8136 13.529 9.81183 13.529 9.81183C13.529 9.81183 14.3917 10.2989 14.5903 10.3503C14.7392 10.3888 14.8884 10.3553 14.9487 10.1788Z" fill="#FFEC2D"/>
<path d="M21.1229 7.6004C21.2837 7.72571 21.4201 7.66828 21.5121 7.54203C21.6348 7.37368 22.0002 6.39676 22.0002 6.39676C22.0002 6.39676 21.1969 7.02328 21.0742 7.19162C20.9822 7.31788 20.9637 7.47298 21.1229 7.6004Z" fill="#FFEC2D"/>
<path d="M22.2665 13.1104C22.1372 13.2694 22.1935 13.4045 22.3201 13.4957C22.489 13.6173 23.4741 13.9799 23.4741 13.9799C23.4741 13.9799 22.8504 13.1842 22.6816 13.0626C22.5549 12.9714 22.3979 12.9529 22.2665 13.1104Z" fill="#FFEC2D"/>
<path d="M16.6993 14.2396C16.5386 14.1143 16.4022 14.1717 16.3102 14.298C16.1875 14.4663 15.8221 15.4433 15.8221 15.4433C15.8221 15.4433 16.6254 14.8167 16.7481 14.6484C16.8401 14.5221 16.8586 14.367 16.6993 14.2396Z" fill="#FFEC2D"/>
<path d="M15.5558 8.72964C15.6851 8.57062 15.6288 8.43555 15.5021 8.34434C15.3332 8.22273 14.3482 7.8601 14.3482 7.8601C14.3482 7.8601 14.9718 8.65584 15.1407 8.77746C15.2674 8.86867 15.4243 8.88713 15.5558 8.72964Z" fill="#FFEC2D"/>
<path d="M22.2296 8.68752C22.3336 8.87868 22.4845 8.88343 22.6198 8.80249C22.8002 8.69457 23.5195 7.91589 23.5195 7.91589C23.5195 7.91589 22.5205 8.16515 22.3401 8.27307C22.2048 8.35401 22.1279 8.495 22.2296 8.68752Z" fill="#FFEC2D"/>
<path d="M21.1624 14.2055C20.971 14.3073 20.9672 14.4566 21.0494 14.591C21.159 14.7701 21.9459 15.4864 21.9459 15.4864C21.9459 15.4864 21.6891 14.4964 21.5795 14.3172C21.4974 14.1829 21.3552 14.106 21.1624 14.2055Z" fill="#FFEC2D"/>
<path d="M15.5919 13.1525C15.488 12.9613 15.3371 12.9566 15.2018 13.0375C15.0213 13.1455 14.302 13.9241 14.302 13.9241C14.302 13.9241 15.3011 13.6749 15.4815 13.567C15.6168 13.486 15.6936 13.345 15.5919 13.1525Z" fill="#FFEC2D"/>
<path d="M16.6591 7.63449C16.8505 7.5327 16.8543 7.3834 16.7721 7.24904C16.6625 7.0699 15.8757 6.3536 15.8757 6.3536C15.8757 6.3536 16.1324 7.34366 16.242 7.52281C16.3242 7.65717 16.4663 7.73404 16.6591 7.63449Z" fill="#FFEC2D"/>
<path d="M22.8191 10.0777C22.8415 10.3325 22.9827 10.4151 23.1433 10.3996C23.3574 10.3788 24.3502 9.92909 24.3502 9.92909C24.3502 9.92909 23.3034 9.67745 23.0893 9.69824C22.9287 9.71384 22.7995 9.82272 22.8191 10.0777Z" fill="#FFEC2D"/>
<path d="M19.7493 14.7837C19.501 14.8006 19.423 14.9398 19.4413 15.1004C19.4658 15.3145 19.9238 16.3146 19.9238 16.3146C19.9238 16.3146 20.1494 15.2753 20.125 15.0612C20.1067 14.9006 19.9979 14.7695 19.7493 14.7837Z" fill="#FFEC2D"/>
<path d="M15.0029 11.7623C14.9806 11.5075 14.8394 11.4249 14.6788 11.4405C14.4646 11.4613 13.4718 11.9109 13.4718 11.9109C13.4718 11.9109 14.5186 12.1626 14.7328 12.1418C14.8934 12.1262 15.0225 12.0173 15.0029 11.7623Z" fill="#FFEC2D"/>
<path d="M18.073 7.05631C18.3213 7.0394 18.3992 6.90025 18.3809 6.73967C18.3565 6.52557 17.8984 5.52547 17.8984 5.52547C17.8984 5.52547 17.6729 6.56471 17.6973 6.77881C17.7156 6.93939 17.8244 7.07054 18.073 7.05631Z" fill="#FFEC2D"/>
<path d="M18.7896 17.03C18.6977 17.1938 18.6426 17.3836 18.5271 17.5318C18.1701 17.212 17.6556 17.2198 17.2041 17.2016C16.8313 17.1808 16.4271 17.147 16.1383 16.8844C15.8365 16.6374 15.5871 16.3202 15.2511 16.12C14.9353 16.0528 14.6385 15.917 14.3822 15.7222C13.852 15.2932 13.5475 14.6562 13.0277 14.2142C12.9306 14.1206 12.8125 14.0452 12.7022 13.9646C12.5972 13.9906 12.6445 14.2142 12.5158 14.0998C12.445 14.0478 12.2691 14.0452 12.2533 14.1154C12.4108 14.3234 12.571 14.5574 12.5946 14.8226C12.4843 14.833 12.2927 14.7992 12.2402 14.8382C12.3843 15.0526 12.5656 15.2401 12.7757 15.392C12.676 15.4076 12.4791 15.3998 12.4397 15.4388C12.6362 15.6252 12.8789 15.757 13.1432 15.821C13.1957 15.8938 13.0618 16.0342 13.1773 16.0966C13.243 16.1226 13.4635 16.1694 13.3112 16.2448C13.2062 16.3124 13.2456 16.4762 13.3795 16.471C13.4635 16.5152 13.6525 16.523 13.6682 16.601C13.5921 16.6738 13.3611 16.7622 13.558 16.835C13.7436 16.9392 13.9512 16.9989 14.1643 17.0092C14.0593 17.0976 13.9281 17.147 13.8205 17.2302C14.3061 17.5136 14.8442 17.6982 15.3797 17.8802C15.5897 17.9478 15.8076 18.0128 16.0281 18.0544C15.3876 18.018 14.7681 17.8308 14.1853 17.5734C13.8843 17.4417 13.5798 17.3186 13.2718 17.2042C13.4057 17.134 13.5632 17.1158 13.705 17.056C13.411 16.9988 13.0933 16.978 12.8387 16.822C12.8755 16.7492 13.0225 16.7466 13.1065 16.7102C13.264 16.6738 13.3585 16.6322 13.1406 16.6166C12.9201 16.5568 12.6681 16.5828 12.4712 16.4528C12.4843 16.3748 12.6891 16.4008 12.7705 16.367C12.8755 16.3488 12.991 16.3332 13.075 16.263C12.7337 16.1252 12.2875 16.224 12.0197 15.925C11.9593 15.8106 12.2113 15.9016 12.2822 15.8834C12.466 15.8834 12.6628 15.9406 12.8387 15.8678C12.34 15.652 11.8071 15.4518 11.4291 15.0514C11.3871 14.9864 11.2611 14.8096 11.3635 14.7888C11.6575 14.8278 11.8701 15.145 12.1877 15.0956C12.2297 15.041 12.004 14.95 11.9462 14.8694C11.4712 14.4916 11.057 14.0445 10.7177 13.5434C10.6967 13.3692 10.9671 13.3432 11.038 13.4758C11.3897 13.8138 11.7073 14.2038 12.1457 14.4326C12.3032 14.508 12.0565 14.3442 12.025 14.2844C11.6081 13.8266 11.2477 13.3212 10.9513 12.779C10.8988 12.6802 10.8175 12.5008 10.9697 12.4488C11.1193 12.3734 11.2716 12.4748 11.3477 12.6048C11.6443 12.9766 11.8648 13.4186 12.235 13.728C11.92 13.1222 11.5813 12.48 11.5735 11.7832C11.5813 11.648 11.5892 11.4452 11.7756 11.4478C11.9331 11.4244 11.9068 11.622 11.9593 11.7156C12.1116 12.2304 12.1772 12.7868 12.4843 13.2392C12.4187 12.8596 12.3163 12.467 12.3846 12.0796C12.4003 11.9496 12.5421 11.9132 12.6392 11.9912C12.7153 12.1732 12.7311 12.4046 12.7993 12.6022C13.2084 13.9481 14.0698 15.1151 15.2406 15.9094C16.1994 16.5588 17.3179 16.9388 18.4772 17.0092C18.5822 17.0179 18.6863 17.0239 18.7896 17.0274M22.3701 19.396C22.1811 19.5104 22.0341 19.3076 21.8766 19.2478C21.7611 19.3102 21.7506 19.513 21.6456 19.6118C21.5196 19.7548 21.3621 19.5702 21.3752 19.4298C21.223 19.5572 21.1468 19.8458 20.9027 19.8042C20.7846 19.7106 20.698 19.513 20.6087 19.7392C20.5378 19.8484 20.3462 20.0044 20.2438 19.838C20.2123 19.6924 20.1388 19.5208 20.0601 19.7522C20.0023 19.9186 19.8238 20.0382 19.6558 19.9654C19.5613 19.89 19.7293 19.6092 19.6112 19.6274C19.4327 19.747 19.3277 20.0356 19.0783 20.0122C18.9812 19.9082 19.1387 19.7236 19.0311 19.604C18.9077 19.7626 18.7686 19.9966 18.5507 20.0122C18.4457 19.929 18.556 19.6872 18.4877 19.6534C18.2672 19.7834 18.031 20.02 17.7527 19.9472C17.8603 19.5312 18.3171 19.3882 18.6977 19.357C19.3566 19.2764 20.0496 19.4246 20.6848 19.188C20.7872 19.1256 21.034 19.0398 20.9473 18.8968C20.8686 18.7824 21.1495 18.8266 21.1757 18.694C21.16 18.5276 21.307 18.551 21.4487 18.538C22.0892 18.5094 22.7218 18.642 23.3597 18.6654C23.407 18.9722 23.0631 19.188 22.7822 19.0944C22.651 19.1152 22.4541 18.7928 22.4935 19.0268C22.4672 19.1516 22.483 19.3128 22.3701 19.396ZM16.9258 18.7668C17.0728 18.8994 17.1778 18.7408 17.317 18.681C17.7713 18.5048 18.1981 18.2659 18.5848 17.9712C18.8263 17.7736 19.0363 17.5162 19.3618 17.4512C19.9971 17.2614 20.6717 17.2848 21.307 17.108C21.7926 16.4528 22.6142 16.2162 23.3046 15.8392C23.4595 15.7924 23.5198 15.665 23.5671 15.5272C23.8296 15.1138 24.1892 14.7498 24.6145 14.5002C24.815 14.3824 25.0517 14.3399 25.2812 14.3806C25.2505 14.6461 25.1225 14.8913 24.9216 15.0696C25.0765 15.067 25.2103 14.9708 25.3626 14.976C25.4151 15.2516 25.1158 15.3946 24.9557 15.5662C25.045 15.587 25.3862 15.613 25.1998 15.7014C24.9636 15.8626 24.6932 15.9744 24.4753 16.1642C24.6775 16.2006 24.7011 16.2422 24.4963 16.315C24.3835 16.3878 24.1708 16.4138 24.1498 16.5594C24.3021 16.653 24.0816 16.7414 23.995 16.7726C23.8322 16.8116 23.659 16.8818 23.8768 17.0066C23.7955 17.1288 23.617 17.1548 23.4726 17.1418C23.5172 17.2822 23.5802 17.4382 23.3991 17.5006C22.9926 17.8184 22.506 18.0198 21.9921 18.083C22.6352 18.1298 23.2993 18.0128 23.848 17.667C23.9215 17.5812 24.3021 17.4876 24.0895 17.4174C23.9897 17.3758 23.7745 17.329 23.7587 17.2536C24.058 17.0716 24.4333 17.1366 24.7536 17.03C24.7615 16.926 24.5095 16.9546 24.415 16.9312C24.1918 16.913 24.205 16.8558 24.4202 16.835C24.6932 16.7622 25.003 16.7492 25.234 16.575C25.0476 16.4866 24.8113 16.562 24.6118 16.4918C24.9505 16.3462 25.3495 16.3306 25.654 16.1096C25.7931 15.9562 25.4755 16.0056 25.3836 16.0082C25.1972 16.042 25.1106 15.951 25.3232 15.8756C25.6881 15.6078 26.1475 15.4362 26.4047 15.0514C26.4651 14.9656 26.5465 14.7056 26.3522 14.7966C26.1002 14.8824 25.8771 15.1632 25.5857 15.0774C26.158 14.638 26.6987 14.1414 27.0898 13.5356C27.1108 13.3588 26.8326 13.3406 26.7617 13.4784C26.3942 13.8268 26.0635 14.2402 25.5936 14.4612C26.0364 14.0225 26.421 13.5298 26.7381 12.9948C26.809 12.8388 26.9953 12.649 26.8956 12.4748C26.7302 12.3396 26.5255 12.4644 26.4415 12.623C26.1553 12.9922 25.9401 13.4212 25.5752 13.7228C25.8928 13.117 26.2262 12.4696 26.2315 11.7728C26.2315 11.6272 26.2052 11.414 26.0057 11.4426C25.8482 11.4686 25.8876 11.7026 25.822 11.8196C25.6802 12.298 25.612 12.8154 25.3232 13.2314C25.3888 12.844 25.5017 12.4384 25.4151 12.0484C25.3731 11.8716 25.087 11.947 25.1263 12.1212C24.7851 13.8346 23.6222 15.3322 22.1076 16.198C21.412 16.588 20.6376 16.8376 19.8448 16.952C19.6348 16.9962 19.4038 16.9702 19.2017 17.043C18.7082 17.4148 18.4116 18.0414 17.7895 18.2364C17.5086 18.3742 17.1463 18.4028 16.9468 18.6576C16.9311 18.6918 16.9239 18.7293 16.9258 18.7668ZM18.283 18.499C18.1885 18.5025 18.0957 18.5172 18.0047 18.5432C17.8813 18.5614 17.7632 18.603 17.6425 18.6212L17.5926 18.6316L17.5112 18.6394C17.5217 18.683 17.5217 18.7284 17.5112 18.772C17.5027 18.7917 17.4902 18.8094 17.4745 18.824C17.4587 18.8448 17.4395 18.8604 17.4167 18.8708C17.3954 18.8812 17.3722 18.8874 17.3485 18.889C17.3257 18.8907 17.3021 18.8873 17.2776 18.8786C17.2548 18.8717 17.233 18.8587 17.212 18.8396L17.1385 18.8526H17.0702L16.9967 18.8266L16.9285 18.7928C16.8392 18.8448 16.7395 18.8942 16.6843 18.9852C16.6587 19.0268 16.6442 19.0743 16.6423 19.123C16.6388 19.1854 16.6511 19.2461 16.6791 19.305C16.6896 19.3206 16.6975 19.2452 16.7263 19.2348C16.7788 19.1932 16.8375 19.1646 16.9022 19.149C16.9547 19.123 16.9468 19.149 16.9258 19.1906C16.9206 19.214 16.8917 19.2946 16.9311 19.253C17.1126 19.1858 17.3043 19.1498 17.4981 19.1464C17.7763 19.1204 18.0546 19.1074 18.3328 19.1074L19.1203 19.123C19.2463 19.1282 19.3723 19.1542 19.4957 19.1334C19.5246 19.1256 19.5718 19.1256 19.5902 19.1074C19.5325 19.0762 19.4668 19.0736 19.4065 19.0658H18.9051C18.766 19.0528 18.6216 19.0502 18.4903 18.9982C18.4536 18.9852 18.4221 18.9514 18.388 18.9878C18.338 19.0055 18.2859 19.0168 18.2331 19.0216C18.1403 19.0251 18.0511 19.0095 17.9653 18.9748C18.0283 18.8933 18.0957 18.8153 18.1675 18.7408L18.0047 18.707C18.0992 18.6377 18.192 18.5683 18.283 18.499Z" fill="#FFEC2D"/>
<path d="M17.3247 18.8058C17.3595 18.8058 17.3877 18.7779 17.3877 18.7434C17.3877 18.709 17.3595 18.681 17.3247 18.681C17.2899 18.681 17.2617 18.709 17.2617 18.7434C17.2617 18.7779 17.2899 18.8058 17.3247 18.8058Z" fill="#FFEC2D"/>
<path d="M17.3197 18.759C17.3342 18.759 17.346 18.7474 17.346 18.733C17.346 18.7187 17.3342 18.707 17.3197 18.707C17.3052 18.707 17.2935 18.7187 17.2935 18.733C17.2935 18.7474 17.3052 18.759 17.3197 18.759Z" fill="#FFEC2D" stroke="#FFEC2D" stroke-width="0.024"/>
<path d="M3.15005 1.89799C3.15005 1.89799 2.89805 1.68479 2.81142 1.79139C2.67492 1.96039 3.23667 2.80539 3.23667 3.10179C3.23667 3.59059 2.90592 3.72319 2.50167 3.79079C2.22867 3.83759 1.78505 3.77259 1.78505 3.77259C1.86905 3.66079 1.92417 3.62699 2.0633 3.61919C1.9058 3.54119 1.7483 3.36439 1.7483 3.09139C1.7483 2.67279 1.92155 2.49859 1.92155 2.02539C1.92155 1.76799 1.7063 1.42999 1.7063 1.42999C2.08955 1.46899 2.27855 1.81999 2.17092 2.10079C2.20047 2.10661 2.231 2.10515 2.25984 2.09654C2.28867 2.08793 2.31493 2.07242 2.3363 2.05139C2.36255 2.12939 2.32055 2.22039 2.26017 2.29839C2.30742 2.32439 2.34417 2.30879 2.41767 2.29319C2.41242 2.37119 2.36517 2.45959 2.24442 2.54019C2.59092 2.45179 2.80092 2.68839 2.80092 2.93799C2.80092 3.12779 2.66967 3.26299 2.53842 3.26299C2.49642 3.26299 2.43342 3.24479 2.3993 3.21879C2.37305 3.27079 2.3888 3.34099 2.41242 3.39299C2.31792 3.36699 2.25492 3.30979 2.29955 3.19279C2.22605 3.18759 2.16917 3.16159 2.12892 3.11479C2.16917 3.06279 2.22605 3.03679 2.29955 3.03679C2.24705 2.92759 2.30742 2.86779 2.39405 2.81839C2.39405 2.81839 2.33892 3.03679 2.47805 3.03679C2.54105 3.03679 2.5988 3.01859 2.5988 2.92499C2.5988 2.84439 2.52792 2.73259 2.36255 2.74039C2.19717 2.74819 2.06592 2.85219 2.06592 3.11219C2.06592 3.35139 2.2628 3.47099 2.52005 3.47619C2.75105 3.48659 2.92692 3.36179 2.92692 3.12519C2.92692 2.80799 2.46755 2.09039 2.46755 1.80959C2.46755 1.59899 2.65655 1.47939 2.84555 1.47939C3.08705 1.47939 3.2918 1.71859 3.2918 1.71859L3.15005 1.89539V1.89799Z" fill="#FFEC2D"/>
<path d="M3.20245 7.59458C3.20245 8.12238 2.7247 8.39278 2.34933 8.39278C1.84533 8.39278 1.57495 8.09378 1.57495 7.70118C1.57495 7.48018 1.61695 7.33978 1.71933 7.12918L2.87958 4.74498C2.92161 4.64469 2.93958 4.53611 2.93208 4.42778C2.93208 4.21458 2.72208 4.04038 2.5042 4.03778C2.3047 4.02998 2.0842 4.21978 2.0842 4.43558C2.0842 4.69818 2.22333 4.81518 2.36508 4.81518C2.53833 4.81518 2.60658 4.74498 2.60658 4.62278C2.60308 4.54132 2.56983 4.50145 2.50683 4.50318C2.3572 4.50318 2.40183 4.70078 2.40183 4.70078C2.38207 4.69716 2.36336 4.68927 2.34704 4.67766C2.33072 4.66606 2.31719 4.65102 2.30741 4.63364C2.29763 4.61625 2.29185 4.59694 2.29047 4.57709C2.28909 4.55724 2.29216 4.53733 2.29945 4.51878C2.24312 4.50666 2.19238 4.47651 2.15508 4.43298C2.19358 4.39312 2.2417 4.36712 2.29945 4.35498C2.26533 4.24058 2.31258 4.18598 2.41233 4.15998C2.39509 4.19925 2.3905 4.24284 2.3992 4.28478C2.5567 4.23798 2.80083 4.31078 2.80083 4.58118C2.80083 4.85158 2.61183 5.07778 2.25745 5.02318C2.34145 5.06218 2.38345 5.14278 2.39395 5.23378C2.32833 5.20778 2.25745 5.20778 2.25745 5.20778C2.29945 5.27798 2.3572 5.33778 2.35458 5.48338C2.28895 5.45218 2.22595 5.39758 2.14458 5.43138C2.27583 5.69138 2.11308 6.04498 1.69833 6.12818C1.84883 5.94965 1.92408 5.76505 1.92408 5.57438C1.92408 4.96338 1.75345 4.86198 1.75345 4.43558C1.75615 4.33669 1.78255 4.23985 1.83048 4.15306C1.8784 4.06626 1.94647 3.99199 2.02908 3.93638V3.94418C1.97828 3.93385 1.93027 3.91299 1.88819 3.88296C1.84611 3.85294 1.81093 3.81443 1.78495 3.76998C2.07737 3.69015 2.3865 3.69286 2.67745 3.77778C2.77477 3.79142 2.86776 3.82654 2.94954 3.88054C3.03132 3.93454 3.09981 4.00605 3.14995 4.08978C3.20236 4.20823 3.22942 4.33616 3.22942 4.46548C3.22942 4.59481 3.20236 4.72273 3.14995 4.84118C2.98458 5.17918 2.21283 6.80678 1.97133 7.31638C1.91883 7.42558 1.8917 7.54171 1.88995 7.66478C1.88995 7.97678 2.1787 8.08598 2.34145 8.08598C2.53833 8.08598 2.74045 7.93778 2.74045 7.75318C2.74045 7.63618 2.67483 7.56338 2.58295 7.56338C2.35983 7.56338 2.37295 7.75058 2.41758 7.87018C2.27845 7.80778 2.1997 7.69858 2.2207 7.58418C2.13456 7.56986 2.05639 7.52561 2.0002 7.45938C2.0527 7.39178 2.12095 7.33978 2.2207 7.33718C2.17608 7.15778 2.29945 7.08238 2.41758 7.04078C2.38083 7.17078 2.35458 7.32418 2.58295 7.32418C2.74833 7.32418 2.87695 7.35018 2.95308 7.45938L2.97145 6.75738C2.98195 6.54678 2.68795 6.54938 2.49895 6.61438C2.56983 6.37258 2.7142 6.23998 3.0502 6.27378C2.99872 6.25418 2.95479 6.21901 2.92463 6.17327C2.89448 6.12753 2.87963 6.07355 2.8822 6.01898C2.8822 5.82138 3.04495 5.60298 3.14995 5.53798L3.20245 7.59198V7.59458Z" fill="#FFEC2D"/>
<path d="M3.20245 9.17538C3.20245 8.64758 2.7247 8.37718 2.34933 8.37718C1.84533 8.37718 1.57495 8.67618 1.57495 9.06878C1.57495 9.28978 1.61695 9.43018 1.71933 9.64078L2.87958 12.025C2.92161 12.1253 2.93958 12.2338 2.93208 12.3422C2.93208 12.5554 2.72208 12.7296 2.5042 12.7322C2.3047 12.74 2.0842 12.5502 2.0842 12.3344C2.0842 12.0718 2.22333 11.9548 2.36508 11.9548C2.53833 11.9548 2.60658 12.025 2.60658 12.1472C2.60308 12.2286 2.56983 12.2685 2.50683 12.2668C2.3572 12.2668 2.40183 12.0692 2.40183 12.0692C2.38207 12.0728 2.36336 12.0807 2.34704 12.0923C2.33072 12.1039 2.31719 12.1189 2.30741 12.1363C2.29763 12.1537 2.29185 12.173 2.29047 12.1929C2.28909 12.2127 2.29216 12.2326 2.29945 12.2512C2.24312 12.2633 2.19238 12.2935 2.15508 12.337C2.19358 12.3768 2.2417 12.4028 2.29945 12.415C2.26533 12.5294 2.31258 12.584 2.41233 12.61C2.39509 12.5707 2.3905 12.5271 2.3992 12.4852C2.5567 12.532 2.80083 12.4592 2.80083 12.1888C2.80083 11.9184 2.61183 11.6922 2.25745 11.7468C2.34145 11.7078 2.38345 11.6272 2.39395 11.5362C2.32833 11.5622 2.25745 11.5622 2.25745 11.5622C2.29945 11.492 2.3572 11.4322 2.35458 11.2866C2.28895 11.3178 2.22595 11.3724 2.14458 11.3386C2.27583 11.0786 2.11308 10.725 1.69833 10.6418C1.84883 10.8203 1.92408 11.0049 1.92408 11.1956C1.92408 11.8066 1.75345 11.908 1.75345 12.3344C1.75615 12.4333 1.78255 12.5301 1.83048 12.6169C1.8784 12.7037 1.94647 12.778 2.02908 12.8336V12.8258C1.97828 12.8361 1.93027 12.857 1.88819 12.887C1.84611 12.917 1.81093 12.9555 1.78495 13C2.07737 13.0798 2.3865 13.0771 2.67745 12.9922C2.77477 12.9785 2.86776 12.9434 2.94954 12.8894C3.03132 12.8354 3.09981 12.7639 3.14995 12.6802C3.20236 12.5617 3.22942 12.4338 3.22942 12.3045C3.22942 12.1752 3.20236 12.0472 3.14995 11.9288C2.98458 11.5908 2.21283 9.96318 1.97133 9.45358C1.91883 9.34438 1.8917 9.22824 1.88995 9.10518C1.88995 8.79318 2.1787 8.68398 2.34145 8.68398C2.53833 8.68398 2.74045 8.83218 2.74045 9.01678C2.74045 9.13378 2.67483 9.20658 2.58295 9.20658C2.35983 9.20658 2.37295 9.01938 2.41758 8.89978C2.27845 8.96218 2.1997 9.07138 2.2207 9.18578C2.13456 9.2001 2.05639 9.24435 2.0002 9.31058C2.0527 9.37818 2.12095 9.43018 2.2207 9.43278C2.17608 9.61218 2.29945 9.68758 2.41758 9.72918C2.38083 9.59918 2.35458 9.44578 2.58295 9.44578C2.74833 9.44578 2.87695 9.41978 2.95308 9.31058L2.97145 10.0126C2.98195 10.2232 2.68795 10.2206 2.49895 10.1556C2.56983 10.3974 2.7142 10.53 3.0502 10.4962C2.99872 10.5158 2.95479 10.551 2.92463 10.5967C2.89448 10.6424 2.87963 10.6964 2.8822 10.751C2.8822 10.9486 3.04495 11.167 3.14995 11.232L3.20245 9.17798V9.17538Z" fill="#FFEC2D"/>
<path d="M3.14976 1.89799C3.14976 1.89799 3.40176 1.68479 3.48838 1.79139C3.62488 1.96039 3.06313 2.80539 3.06313 3.10179C3.06313 3.59059 3.39388 3.72319 3.79813 3.79079C4.07113 3.83759 4.51476 3.77259 4.51476 3.77259C4.43076 3.66079 4.37563 3.62699 4.23651 3.61919C4.39401 3.54119 4.55151 3.36439 4.55151 3.09139C4.55151 2.67279 4.37826 2.49859 4.37826 2.02539C4.37826 1.76799 4.59351 1.42999 4.59351 1.42999C4.21026 1.46899 4.02126 1.81999 4.12888 2.10079C4.09934 2.10661 4.06881 2.10515 4.03997 2.09654C4.01113 2.08793 3.98487 2.07242 3.96351 2.05139C3.93726 2.12939 3.97926 2.22039 4.03963 2.29839C3.99238 2.32439 3.95563 2.30879 3.88213 2.29319C3.88738 2.37119 3.93463 2.45959 4.05538 2.54019C3.70888 2.45179 3.49888 2.68839 3.49888 2.93799C3.49888 3.12779 3.63013 3.26299 3.76138 3.26299C3.80338 3.26299 3.86638 3.24479 3.90051 3.21879C3.92676 3.27079 3.91101 3.34099 3.88738 3.39299C3.98188 3.36699 4.04488 3.30979 4.00026 3.19279C4.07376 3.18759 4.13063 3.16159 4.17088 3.11479C4.13063 3.06279 4.07376 3.03679 4.00026 3.03679C4.05276 2.92759 3.99238 2.86779 3.90576 2.81839C3.90576 2.81839 3.96088 3.03679 3.82176 3.03679C3.75876 3.03679 3.70101 3.01859 3.70101 2.92499C3.70101 2.84439 3.77188 2.73259 3.93726 2.74039C4.10263 2.74819 4.23388 2.85219 4.23388 3.11219C4.23388 3.35139 4.03701 3.47099 3.77976 3.47619C3.54876 3.48659 3.37288 3.36179 3.37288 3.12519C3.37288 2.80799 3.83226 2.09039 3.83226 1.80959C3.83226 1.59899 3.64326 1.47939 3.45426 1.47939C3.21276 1.47939 3.00801 1.71859 3.00801 1.71859L3.14976 1.89539V1.89799Z" fill="#FFEC2D"/>
<path d="M3.09735 7.59458C3.09735 8.12238 3.5751 8.39278 3.95048 8.39278C4.45448 8.39278 4.72485 8.09378 4.72485 7.70118C4.72485 7.48018 4.68285 7.33978 4.58048 7.12918L3.42023 4.74498C3.3782 4.64469 3.36022 4.53611 3.36773 4.42778C3.36773 4.21458 3.57773 4.04038 3.7956 4.03778C3.9951 4.02998 4.2156 4.21978 4.2156 4.43558C4.2156 4.69818 4.07648 4.81518 3.93473 4.81518C3.76148 4.81518 3.69323 4.74498 3.69323 4.62278C3.69673 4.54132 3.72998 4.50145 3.79298 4.50318C3.9426 4.50318 3.89798 4.70078 3.89798 4.70078C3.91774 4.69716 3.93644 4.68927 3.95276 4.67766C3.96908 4.66606 3.98262 4.65102 3.9924 4.63364C4.00218 4.61625 4.00796 4.59694 4.00933 4.57709C4.01071 4.55724 4.00764 4.53733 4.00035 4.51878C4.05668 4.50666 4.10742 4.47651 4.14473 4.43298C4.10623 4.39312 4.0581 4.36712 4.00035 4.35498C4.03448 4.24058 3.98723 4.18598 3.88748 4.15998C3.90472 4.19925 3.9093 4.24284 3.9006 4.28478C3.7431 4.23798 3.49898 4.31078 3.49898 4.58118C3.49898 4.85158 3.68798 5.07778 4.04235 5.02318C3.95835 5.06218 3.91635 5.14278 3.90585 5.23378C3.97148 5.20778 4.04235 5.20778 4.04235 5.20778C4.00035 5.27798 3.9426 5.33778 3.94523 5.48338C4.01085 5.45218 4.07385 5.39758 4.15523 5.43138C4.02398 5.69138 4.18673 6.04498 4.60148 6.12818C4.45098 5.94965 4.37573 5.76505 4.37573 5.57438C4.37573 4.96338 4.54635 4.86198 4.54635 4.43558C4.54365 4.33669 4.51725 4.23985 4.46933 4.15306C4.4214 4.06626 4.35333 3.99199 4.27073 3.93638V3.94418C4.32153 3.93385 4.36954 3.91299 4.41161 3.88296C4.45369 3.85294 4.48887 3.81443 4.51485 3.76998C4.22243 3.69015 3.91331 3.69286 3.62235 3.77778C3.52503 3.79142 3.43205 3.82654 3.35027 3.88054C3.26848 3.93454 3.19999 4.00605 3.14985 4.08978C3.09744 4.20823 3.07039 4.33616 3.07039 4.46548C3.07039 4.59481 3.09744 4.72273 3.14985 4.84118C3.31523 5.17918 4.08698 6.80678 4.32848 7.31638C4.38098 7.42558 4.4081 7.54171 4.40985 7.66478C4.40985 7.97678 4.1211 8.08598 3.95835 8.08598C3.76148 8.08598 3.55935 7.93778 3.55935 7.75318C3.55935 7.63618 3.62498 7.56338 3.71685 7.56338C3.93998 7.56338 3.92685 7.75058 3.88223 7.87018C4.02135 7.80778 4.1001 7.69858 4.0791 7.58418C4.16524 7.56986 4.24341 7.52561 4.2996 7.45938C4.2471 7.39178 4.17885 7.33978 4.0791 7.33718C4.12373 7.15778 4.00035 7.08238 3.88223 7.04078C3.91898 7.17078 3.94523 7.32418 3.71685 7.32418C3.55148 7.32418 3.42285 7.35018 3.34673 7.45938L3.32835 6.75738C3.31785 6.54678 3.61185 6.54938 3.80085 6.61438C3.72998 6.37258 3.5856 6.23998 3.2496 6.27378C3.30108 6.25418 3.34502 6.21901 3.37517 6.17327C3.40533 6.12753 3.42017 6.07355 3.4176 6.01898C3.4176 5.82138 3.25485 5.60298 3.14985 5.53798L3.09735 7.59198V7.59458Z" fill="#FFEC2D"/>
<path d="M3.09735 9.17538C3.09735 8.64758 3.5751 8.37718 3.95048 8.37718C4.45448 8.37718 4.72485 8.67618 4.72485 9.06878C4.72485 9.28978 4.68285 9.43018 4.58048 9.64078L3.42023 12.025C3.3782 12.1253 3.36022 12.2338 3.36773 12.3422C3.36773 12.5554 3.57773 12.7296 3.7956 12.7322C3.9951 12.74 4.2156 12.5502 4.2156 12.3344C4.2156 12.0718 4.07648 11.9548 3.93473 11.9548C3.76148 11.9548 3.69323 12.025 3.69323 12.1472C3.69673 12.2286 3.72998 12.2685 3.79298 12.2668C3.9426 12.2668 3.89798 12.0692 3.89798 12.0692C3.91774 12.0728 3.93644 12.0807 3.95276 12.0923C3.96908 12.1039 3.98262 12.1189 3.9924 12.1363C4.00218 12.1537 4.00796 12.173 4.00933 12.1929C4.01071 12.2127 4.00764 12.2326 4.00035 12.2512C4.05668 12.2633 4.10742 12.2935 4.14473 12.337C4.10623 12.3768 4.0581 12.4028 4.00035 12.415C4.03448 12.5294 3.98723 12.584 3.88748 12.61C3.90472 12.5707 3.9093 12.5271 3.9006 12.4852C3.7431 12.532 3.49898 12.4592 3.49898 12.1888C3.49898 11.9184 3.68798 11.6922 4.04235 11.7468C3.95835 11.7078 3.91635 11.6272 3.90585 11.5362C3.97148 11.5622 4.04235 11.5622 4.04235 11.5622C4.00035 11.492 3.9426 11.4322 3.94523 11.2866C4.01085 11.3178 4.07385 11.3724 4.15523 11.3386C4.02398 11.0786 4.18673 10.725 4.60148 10.6418C4.45098 10.8203 4.37573 11.0049 4.37573 11.1956C4.37573 11.8066 4.54635 11.908 4.54635 12.3344C4.54365 12.4333 4.51725 12.5301 4.46933 12.6169C4.4214 12.7037 4.35333 12.778 4.27073 12.8336V12.8258C4.32153 12.8361 4.36954 12.857 4.41161 12.887C4.45369 12.917 4.48887 12.9555 4.51485 13C4.22243 13.0798 3.91331 13.0771 3.62235 12.9922C3.52503 12.9785 3.43205 12.9434 3.35027 12.8894C3.26848 12.8354 3.19999 12.7639 3.14985 12.6802C3.09744 12.5617 3.07039 12.4338 3.07039 12.3045C3.07039 12.1752 3.09744 12.0472 3.14985 11.9288C3.31523 11.5908 4.08698 9.96318 4.32848 9.45358C4.38098 9.34438 4.4081 9.22824 4.40985 9.10518C4.40985 8.79318 4.1211 8.68398 3.95835 8.68398C3.76148 8.68398 3.55935 8.83218 3.55935 9.01678C3.55935 9.13378 3.62498 9.20658 3.71685 9.20658C3.93998 9.20658 3.92685 9.01938 3.88223 8.89978C4.02135 8.96218 4.1001 9.07138 4.0791 9.18578C4.16524 9.2001 4.24341 9.24435 4.2996 9.31058C4.2471 9.37818 4.17885 9.43018 4.0791 9.43278C4.12373 9.61218 4.00035 9.68758 3.88223 9.72918C3.91898 9.59918 3.94523 9.44578 3.71685 9.44578C3.55148 9.44578 3.42285 9.41978 3.34673 9.31058L3.32835 10.0126C3.31785 10.2232 3.61185 10.2206 3.80085 10.1556C3.72998 10.3974 3.5856 10.53 3.2496 10.4962C3.30108 10.5158 3.34502 10.551 3.37517 10.5967C3.40533 10.6424 3.42017 10.6964 3.4176 10.751C3.4176 10.9486 3.25485 11.167 3.14985 11.232L3.09735 9.17798V9.17538Z" fill="#FFEC2D"/>
<path d="M3.15005 24.102C3.15005 24.102 2.89805 24.3152 2.81142 24.2086C2.67492 24.0396 3.23667 23.1946 3.23667 22.8982C3.23667 22.4094 2.90592 22.2768 2.50167 22.2092C2.22867 22.1624 1.78505 22.2274 1.78505 22.2274C1.86905 22.3392 1.92417 22.373 2.0633 22.3808C1.9058 22.4588 1.7483 22.6356 1.7483 22.9086C1.7483 23.3272 1.92155 23.5014 1.92155 23.9746C1.92155 24.232 1.7063 24.57 1.7063 24.57C2.08955 24.531 2.27855 24.18 2.17092 23.8992C2.20047 23.8934 2.231 23.8948 2.25984 23.9035C2.28867 23.9121 2.31493 23.9276 2.3363 23.9486C2.36255 23.8706 2.32055 23.7796 2.26017 23.7016C2.30742 23.6756 2.34417 23.6912 2.41767 23.7068C2.41242 23.6288 2.36517 23.5404 2.24442 23.4598C2.59092 23.5482 2.80092 23.3116 2.80092 23.062C2.80092 22.8722 2.66967 22.737 2.53842 22.737C2.49642 22.737 2.43342 22.7552 2.3993 22.7812C2.37305 22.7292 2.3888 22.659 2.41242 22.607C2.31792 22.633 2.25492 22.6902 2.29955 22.8072C2.22605 22.8124 2.16917 22.8384 2.12892 22.8852C2.16917 22.9372 2.22605 22.9632 2.29955 22.9632C2.24705 23.0724 2.30742 23.1322 2.39405 23.1816C2.39405 23.1816 2.33892 22.9632 2.47805 22.9632C2.54105 22.9632 2.5988 22.9814 2.5988 23.075C2.5988 23.1556 2.52792 23.2674 2.36255 23.2596C2.19717 23.2518 2.06592 23.1478 2.06592 22.8878C2.06592 22.6486 2.2628 22.529 2.52005 22.5238C2.75105 22.5134 2.92692 22.6382 2.92692 22.8748C2.92692 23.192 2.46755 23.9096 2.46755 24.1904C2.46755 24.401 2.65655 24.5206 2.84555 24.5206C3.08705 24.5206 3.2918 24.2814 3.2918 24.2814L3.15005 24.1046V24.102Z" fill="#FFEC2D"/>
<path d="M3.20245 18.4054C3.20245 17.8776 2.7247 17.6072 2.34933 17.6072C1.84533 17.6072 1.57495 17.9062 1.57495 18.2988C1.57495 18.5198 1.61695 18.6602 1.71933 18.8708L2.87958 21.255C2.92161 21.3553 2.93958 21.4639 2.93208 21.5722C2.93208 21.7854 2.72208 21.9596 2.5042 21.9622C2.3047 21.97 2.0842 21.7802 2.0842 21.5644C2.0842 21.3018 2.22333 21.1848 2.36508 21.1848C2.53833 21.1848 2.60658 21.255 2.60658 21.3772C2.60308 21.4587 2.56983 21.4986 2.50683 21.4968C2.3572 21.4968 2.40183 21.2992 2.40183 21.2992C2.38207 21.3028 2.36336 21.3107 2.34704 21.3223C2.33072 21.3339 2.31719 21.349 2.30741 21.3664C2.29763 21.3837 2.29185 21.4031 2.29047 21.4229C2.28909 21.4428 2.29216 21.4627 2.29945 21.4812C2.24312 21.4933 2.19238 21.5235 2.15508 21.567C2.19358 21.6069 2.2417 21.6329 2.29945 21.645C2.26533 21.7594 2.31258 21.814 2.41233 21.84C2.39509 21.8007 2.3905 21.7572 2.3992 21.7152C2.5567 21.762 2.80083 21.6892 2.80083 21.4188C2.80083 21.1484 2.61183 20.9222 2.25745 20.9768C2.34145 20.9378 2.38345 20.8572 2.39395 20.7662C2.32833 20.7922 2.25745 20.7922 2.25745 20.7922C2.29945 20.722 2.3572 20.6622 2.35458 20.5166C2.28895 20.5478 2.22595 20.6024 2.14458 20.5686C2.27583 20.3086 2.11308 19.955 1.69833 19.8718C1.84883 20.0504 1.92408 20.235 1.92408 20.4256C1.92408 21.0366 1.75345 21.138 1.75345 21.5644C1.75615 21.6633 1.78255 21.7601 1.83048 21.8469C1.8784 21.9337 1.94647 22.008 2.02908 22.0636V22.0558C1.97828 22.0662 1.93027 22.087 1.88819 22.117C1.84611 22.1471 1.81093 22.1856 1.78495 22.23C2.07737 22.3098 2.3865 22.3071 2.67745 22.2222C2.77477 22.2086 2.86776 22.1735 2.94954 22.1195C3.03132 22.0655 3.09981 21.994 3.14995 21.9102C3.20236 21.7918 3.22942 21.6638 3.22942 21.5345C3.22942 21.4052 3.20236 21.2773 3.14995 21.1588C2.98458 20.8208 2.21283 19.1932 1.97133 18.6836C1.91883 18.5744 1.8917 18.4583 1.88995 18.3352C1.88995 18.0232 2.1787 17.914 2.34145 17.914C2.53833 17.914 2.74045 18.0622 2.74045 18.2468C2.74045 18.3638 2.67483 18.4366 2.58295 18.4366C2.35983 18.4366 2.37295 18.2494 2.41758 18.1298C2.27845 18.1922 2.1997 18.3014 2.2207 18.4158C2.13456 18.4301 2.05639 18.4744 2.0002 18.5406C2.0527 18.6082 2.12095 18.6602 2.2207 18.6628C2.17608 18.8422 2.29945 18.9176 2.41758 18.9592C2.38083 18.8292 2.35458 18.6758 2.58295 18.6758C2.74833 18.6758 2.87695 18.6498 2.95308 18.5406L2.97145 19.2426C2.98195 19.4532 2.68795 19.4506 2.49895 19.3856C2.56983 19.6274 2.7142 19.76 3.0502 19.7262C2.99872 19.7458 2.95479 19.781 2.92463 19.8267C2.89448 19.8725 2.87963 19.9265 2.8822 19.981C2.8822 20.1786 3.04495 20.397 3.14995 20.462L3.20245 18.408V18.4054Z" fill="#FFEC2D"/>
<path d="M3.20245 16.8246C3.20245 17.3524 2.7247 17.6228 2.34933 17.6228C1.84533 17.6228 1.57495 17.3238 1.57495 16.9312C1.57495 16.7102 1.61695 16.5698 1.71933 16.3592L2.87958 13.975C2.92161 13.8747 2.93958 13.7662 2.93208 13.6578C2.93208 13.4446 2.72208 13.2704 2.5042 13.2678C2.3047 13.26 2.0842 13.4498 2.0842 13.6656C2.0842 13.9282 2.22333 14.0452 2.36508 14.0452C2.53833 14.0452 2.60658 13.975 2.60658 13.8528C2.60308 13.7714 2.56983 13.7315 2.50683 13.7332C2.3572 13.7332 2.40183 13.9308 2.40183 13.9308C2.38207 13.9272 2.36336 13.9193 2.34704 13.9077C2.33072 13.8961 2.31719 13.8811 2.30741 13.8637C2.29763 13.8463 2.29185 13.827 2.29047 13.8071C2.28909 13.7873 2.29216 13.7674 2.29945 13.7488C2.24312 13.7367 2.19238 13.7065 2.15508 13.663C2.19358 13.6232 2.2417 13.5972 2.29945 13.585C2.26533 13.4706 2.31258 13.416 2.41233 13.39C2.39509 13.4293 2.3905 13.4729 2.3992 13.5148C2.5567 13.468 2.80083 13.5408 2.80083 13.8112C2.80083 14.0816 2.61183 14.3078 2.25745 14.2532C2.34145 14.2922 2.38345 14.3728 2.39395 14.4638C2.32833 14.4378 2.25745 14.4378 2.25745 14.4378C2.29945 14.508 2.3572 14.5678 2.35458 14.7134C2.28895 14.6822 2.22595 14.6276 2.14458 14.6614C2.27583 14.9214 2.11308 15.275 1.69833 15.3582C1.84883 15.1797 1.92408 14.9951 1.92408 14.8044C1.92408 14.1934 1.75345 14.092 1.75345 13.6656C1.75615 13.5667 1.78255 13.4699 1.83048 13.3831C1.8784 13.2963 1.94647 13.222 2.02908 13.1664V13.1742C1.97828 13.1639 1.93027 13.143 1.88819 13.113C1.84611 13.083 1.81093 13.0445 1.78495 13C2.07737 12.9202 2.3865 12.9229 2.67745 13.0078C2.77477 13.0215 2.86776 13.0566 2.94954 13.1106C3.03132 13.1646 3.09981 13.2361 3.14995 13.3198C3.20236 13.4383 3.22942 13.5662 3.22942 13.6955C3.22942 13.8248 3.20236 13.9528 3.14995 14.0712C2.98458 14.4092 2.21283 16.0368 1.97133 16.5464C1.91883 16.6556 1.8917 16.7718 1.88995 16.8948C1.88995 17.2068 2.1787 17.316 2.34145 17.316C2.53833 17.316 2.74045 17.1678 2.74045 16.9832C2.74045 16.8662 2.67483 16.7934 2.58295 16.7934C2.35983 16.7934 2.37295 16.9806 2.41758 17.1002C2.27845 17.0378 2.1997 16.9286 2.2207 16.8142C2.13456 16.7999 2.05639 16.7557 2.0002 16.6894C2.0527 16.6218 2.12095 16.5698 2.2207 16.5672C2.17608 16.3878 2.29945 16.3124 2.41758 16.2708C2.38083 16.4008 2.35458 16.5542 2.58295 16.5542C2.74833 16.5542 2.87695 16.5802 2.95308 16.6894L2.97145 15.9874C2.98195 15.7768 2.68795 15.7794 2.49895 15.8444C2.56983 15.6026 2.7142 15.47 3.0502 15.5038C2.99872 15.4842 2.95479 15.449 2.92463 15.4033C2.89448 15.3576 2.87963 15.3036 2.8822 15.249C2.8822 15.0514 3.04495 14.833 3.14995 14.768L3.20245 16.822V16.8246Z" fill="#FFEC2D"/>
<path d="M3.14976 24.102C3.14976 24.102 3.40176 24.3152 3.48838 24.2086C3.62488 24.0396 3.06313 23.1946 3.06313 22.8982C3.06313 22.4094 3.39388 22.2768 3.79813 22.2092C4.07113 22.1624 4.51476 22.2274 4.51476 22.2274C4.43076 22.3392 4.37563 22.373 4.23651 22.3808C4.39401 22.4588 4.55151 22.6356 4.55151 22.9086C4.55151 23.3272 4.37826 23.5014 4.37826 23.9746C4.37826 24.232 4.59351 24.57 4.59351 24.57C4.21026 24.531 4.02126 24.18 4.12888 23.8992C4.09934 23.8934 4.06881 23.8948 4.03997 23.9035C4.01113 23.9121 3.98487 23.9276 3.96351 23.9486C3.93726 23.8706 3.97926 23.7796 4.03963 23.7016C3.99238 23.6756 3.95563 23.6912 3.88213 23.7068C3.88738 23.6288 3.93463 23.5404 4.05538 23.4598C3.70888 23.5482 3.49888 23.3116 3.49888 23.062C3.49888 22.8722 3.63013 22.737 3.76138 22.737C3.80338 22.737 3.86638 22.7552 3.90051 22.7812C3.92676 22.7292 3.91101 22.659 3.88738 22.607C3.98188 22.633 4.04488 22.6902 4.00026 22.8072C4.07376 22.8124 4.13063 22.8384 4.17088 22.8852C4.13063 22.9372 4.07376 22.9632 4.00026 22.9632C4.05276 23.0724 3.99238 23.1322 3.90576 23.1816C3.90576 23.1816 3.96088 22.9632 3.82176 22.9632C3.75876 22.9632 3.70101 22.9814 3.70101 23.075C3.70101 23.1556 3.77188 23.2674 3.93726 23.2596C4.10263 23.2518 4.23388 23.1478 4.23388 22.8878C4.23388 22.6486 4.03701 22.529 3.77976 22.5238C3.54876 22.5134 3.37288 22.6382 3.37288 22.8748C3.37288 23.192 3.83226 23.9096 3.83226 24.1904C3.83226 24.401 3.64326 24.5206 3.45426 24.5206C3.21276 24.5206 3.00801 24.2814 3.00801 24.2814L3.14976 24.1046V24.102Z" fill="#FFEC2D"/>
<path d="M3.09735 18.4054C3.09735 17.8776 3.5751 17.6072 3.95048 17.6072C4.45448 17.6072 4.72485 17.9062 4.72485 18.2988C4.72485 18.5198 4.68285 18.6602 4.58048 18.8708L3.42023 21.255C3.3782 21.3553 3.36022 21.4639 3.36773 21.5722C3.36773 21.7854 3.57773 21.9596 3.7956 21.9622C3.9951 21.97 4.2156 21.7802 4.2156 21.5644C4.2156 21.3018 4.07648 21.1848 3.93473 21.1848C3.76148 21.1848 3.69323 21.255 3.69323 21.3772C3.69673 21.4587 3.72998 21.4986 3.79298 21.4968C3.9426 21.4968 3.89798 21.2992 3.89798 21.2992C3.91774 21.3028 3.93644 21.3107 3.95276 21.3223C3.96908 21.3339 3.98262 21.349 3.9924 21.3664C4.00218 21.3837 4.00796 21.4031 4.00933 21.4229C4.01071 21.4428 4.00764 21.4627 4.00035 21.4812C4.05668 21.4933 4.10742 21.5235 4.14473 21.567C4.10623 21.6069 4.0581 21.6329 4.00035 21.645C4.03448 21.7594 3.98723 21.814 3.88748 21.84C3.90472 21.8007 3.9093 21.7572 3.9006 21.7152C3.7431 21.762 3.49898 21.6892 3.49898 21.4188C3.49898 21.1484 3.68798 20.9222 4.04235 20.9768C3.95835 20.9378 3.91635 20.8572 3.90585 20.7662C3.97148 20.7922 4.04235 20.7922 4.04235 20.7922C4.00035 20.722 3.9426 20.6622 3.94523 20.5166C4.01085 20.5478 4.07385 20.6024 4.15523 20.5686C4.02398 20.3086 4.18673 19.955 4.60148 19.8718C4.45098 20.0504 4.37573 20.235 4.37573 20.4256C4.37573 21.0366 4.54635 21.138 4.54635 21.5644C4.54365 21.6633 4.51725 21.7601 4.46933 21.8469C4.4214 21.9337 4.35333 22.008 4.27073 22.0636V22.0558C4.32153 22.0662 4.36954 22.087 4.41161 22.117C4.45369 22.1471 4.48887 22.1856 4.51485 22.23C4.22243 22.3098 3.91331 22.3071 3.62235 22.2222C3.52503 22.2086 3.43205 22.1735 3.35027 22.1195C3.26848 22.0655 3.19999 21.994 3.14985 21.9102C3.09744 21.7918 3.07039 21.6638 3.07039 21.5345C3.07039 21.4052 3.09744 21.2773 3.14985 21.1588C3.31523 20.8208 4.08698 19.1932 4.32848 18.6836C4.38098 18.5744 4.4081 18.4583 4.40985 18.3352C4.40985 18.0232 4.1211 17.914 3.95835 17.914C3.76148 17.914 3.55935 18.0622 3.55935 18.2468C3.55935 18.3638 3.62498 18.4366 3.71685 18.4366C3.93998 18.4366 3.92685 18.2494 3.88223 18.1298C4.02135 18.1922 4.1001 18.3014 4.0791 18.4158C4.16524 18.4301 4.24341 18.4744 4.2996 18.5406C4.2471 18.6082 4.17885 18.6602 4.0791 18.6628C4.12373 18.8422 4.00035 18.9176 3.88223 18.9592C3.91898 18.8292 3.94523 18.6758 3.71685 18.6758C3.55148 18.6758 3.42285 18.6498 3.34673 18.5406L3.32835 19.2426C3.31785 19.4532 3.61185 19.4506 3.80085 19.3856C3.72998 19.6274 3.5856 19.76 3.2496 19.7262C3.30108 19.7458 3.34502 19.781 3.37517 19.8267C3.40533 19.8725 3.42017 19.9265 3.4176 19.981C3.4176 20.1786 3.25485 20.397 3.14985 20.462L3.09735 18.408V18.4054Z" fill="#FFEC2D"/>
<path d="M3.09735 16.8246C3.09735 17.3524 3.5751 17.6228 3.95048 17.6228C4.45448 17.6228 4.72485 17.3238 4.72485 16.9312C4.72485 16.7102 4.68285 16.5698 4.58048 16.3592L3.42023 13.975C3.3782 13.8747 3.36022 13.7662 3.36773 13.6578C3.36773 13.4446 3.57773 13.2704 3.7956 13.2678C3.9951 13.26 4.2156 13.4498 4.2156 13.6656C4.2156 13.9282 4.07648 14.0452 3.93473 14.0452C3.76148 14.0452 3.69323 13.975 3.69323 13.8528C3.69673 13.7714 3.72998 13.7315 3.79298 13.7332C3.9426 13.7332 3.89798 13.9308 3.89798 13.9308C3.91774 13.9272 3.93644 13.9193 3.95276 13.9077C3.96908 13.8961 3.98262 13.8811 3.9924 13.8637C4.00218 13.8463 4.00796 13.827 4.00933 13.8071C4.01071 13.7873 4.00764 13.7674 4.00035 13.7488C4.05668 13.7367 4.10742 13.7065 4.14473 13.663C4.10623 13.6232 4.0581 13.5972 4.00035 13.585C4.03448 13.4706 3.98723 13.416 3.88748 13.39C3.90472 13.4293 3.9093 13.4729 3.9006 13.5148C3.7431 13.468 3.49898 13.5408 3.49898 13.8112C3.49898 14.0816 3.68798 14.3078 4.04235 14.2532C3.95835 14.2922 3.91635 14.3728 3.90585 14.4638C3.97148 14.4378 4.04235 14.4378 4.04235 14.4378C4.00035 14.508 3.9426 14.5678 3.94523 14.7134C4.01085 14.6822 4.07385 14.6276 4.15523 14.6614C4.02398 14.9214 4.18673 15.275 4.60148 15.3582C4.45098 15.1797 4.37573 14.9951 4.37573 14.8044C4.37573 14.1934 4.54635 14.092 4.54635 13.6656C4.54365 13.5667 4.51725 13.4699 4.46933 13.3831C4.4214 13.2963 4.35333 13.222 4.27073 13.1664V13.1742C4.32153 13.1639 4.36954 13.143 4.41161 13.113C4.45369 13.083 4.48887 13.0445 4.51485 13C4.22243 12.9202 3.91331 12.9229 3.62235 13.0078C3.52503 13.0215 3.43205 13.0566 3.35027 13.1106C3.26848 13.1646 3.19999 13.2361 3.14985 13.3198C3.09744 13.4383 3.07039 13.5662 3.07039 13.6955C3.07039 13.8248 3.09744 13.9528 3.14985 14.0712C3.31523 14.4092 4.08698 16.0368 4.32848 16.5464C4.38098 16.6556 4.4081 16.7718 4.40985 16.8948C4.40985 17.2068 4.1211 17.316 3.95835 17.316C3.76148 17.316 3.55935 17.1678 3.55935 16.9832C3.55935 16.8662 3.62498 16.7934 3.71685 16.7934C3.93998 16.7934 3.92685 16.9806 3.88223 17.1002C4.02135 17.0378 4.1001 16.9286 4.0791 16.8142C4.16524 16.7999 4.24341 16.7557 4.2996 16.6894C4.2471 16.6218 4.17885 16.5698 4.0791 16.5672C4.12373 16.3878 4.00035 16.3124 3.88223 16.2708C3.91898 16.4008 3.94523 16.5542 3.71685 16.5542C3.55148 16.5542 3.42285 16.5802 3.34673 16.6894L3.32835 15.9874C3.31785 15.7768 3.61185 15.7794 3.80085 15.8444C3.72998 15.6026 3.5856 15.47 3.2496 15.5038C3.30108 15.4842 3.34502 15.449 3.37517 15.4033C3.40533 15.3576 3.42017 15.3036 3.4176 15.249C3.4176 15.0514 3.25485 14.833 3.14985 14.768L3.09735 16.822V16.8246Z" fill="#FFEC2D"/>
</g>
<defs>
<clipPath id="clip0_102_1864">
<rect width="35" height="26" fill="white"/>
</clipPath>
</defs>
</svg>
