<svg width="35" height="26" viewBox="0 0 35 26" fill="none" xmlns="http://www.w3.org/2000/svg">
<g clip-path="url(#clip0_102_1865)">
<path d="M0 17.3333H35V26H0V17.3333Z" fill="#1EB53A"/>
<path d="M0 0H35V8.66667H0V0Z" fill="#0099B5"/>
<path d="M0 8.32001H35V17.68H0V8.32001Z" fill="#CE1126"/>
<path d="M0 8.83997H35V17.16H0V8.83997Z" fill="white"/>
<path d="M7.34995 7.27998C9.08965 7.27998 10.5 5.88311 10.5 4.15998C10.5 2.43685 9.08965 1.03998 7.34995 1.03998C5.61025 1.03998 4.19995 2.43685 4.19995 4.15998C4.19995 5.88311 5.61025 7.27998 7.34995 7.27998Z" fill="white"/>
<path d="M8.4 7.27998C10.1397 7.27998 11.55 5.88311 11.55 4.15998C11.55 2.43685 10.1397 1.03998 8.4 1.03998C6.6603 1.03998 5.25 2.43685 5.25 4.15998C5.25 5.88311 6.6603 7.27998 8.4 7.27998Z" fill="#0099B5"/>
<path d="M14.2788 6.03308L14.0793 6.62588L14.3838 6.72988" fill="white"/>
<path d="M14.2788 6.03308L14.4783 6.62588L14.1738 6.72988" fill="white"/>
<path d="M14.8739 6.45482L14.2454 6.47186L14.2538 6.77853" fill="white"/>
<path d="M14.87 6.45931L14.3809 6.83325L14.1765 6.59518" fill="white"/>
<path d="M13.6879 6.45925L14.1769 6.83319L14.3813 6.59512" fill="white"/>
<path d="M13.684 6.45476L14.3124 6.4718L14.3041 6.77847" fill="white"/>
<path d="M14.6497 7.16208L14.4575 6.56643L14.1504 6.65996" fill="white"/>
<path d="M14.6496 7.16164L14.1362 6.79872L14.3195 6.53702" fill="white"/>
<path d="M13.9098 7.16347L14.4224 6.79633L14.2341 6.537" fill="white"/>
<path d="M13.9108 7.16269L14.0964 6.56648L14.4072 6.6568" fill="white"/>
<path d="M14.2788 3.53705L14.0793 4.12985L14.3838 4.23385" fill="white"/>
<path d="M14.2788 3.53705L14.4783 4.12985L14.1738 4.23385" fill="white"/>
<path d="M14.8736 3.95872L14.2452 3.97577L14.2535 4.28244" fill="white"/>
<path d="M14.87 3.96321L14.3809 4.33716L14.1765 4.09908" fill="white"/>
<path d="M13.6879 3.96321L14.1769 4.33716L14.3813 4.09908" fill="white"/>
<path d="M13.684 3.95872L14.3124 3.97577L14.3041 4.28244" fill="white"/>
<path d="M14.6497 4.66605L14.4575 4.0704L14.1504 4.16393" fill="white"/>
<path d="M14.6496 4.66561L14.1362 4.30269L14.3195 4.04098" fill="white"/>
<path d="M13.9098 4.66744L14.4224 4.3003L14.2341 4.04096" fill="white"/>
<path d="M13.9108 4.66666L14.0964 4.07045L14.4072 4.16076" fill="white"/>
<path d="M14.2788 1.04108L14.0793 1.63388L14.3838 1.73788" fill="white"/>
<path d="M14.2788 1.04108L14.4783 1.63388L14.1738 1.73788" fill="white"/>
<path d="M14.8739 1.46281L14.2454 1.47986L14.2538 1.78652" fill="white"/>
<path d="M14.87 1.4673L14.3809 1.84125L14.1765 1.60317" fill="white"/>
<path d="M13.6879 1.46724L14.1769 1.84119L14.3813 1.60311" fill="white"/>
<path d="M13.684 1.46275L14.3124 1.4798L14.3041 1.78646" fill="white"/>
<path d="M14.6497 2.17008L14.4575 1.57443L14.1504 1.66796" fill="white"/>
<path d="M14.6496 2.16964L14.1362 1.80672L14.3195 1.54501" fill="white"/>
<path d="M13.9098 2.17147L14.4224 1.80432L14.2341 1.54499" fill="white"/>
<path d="M13.9108 2.17069L14.0964 1.57448L14.4072 1.66479" fill="white"/>
<path d="M16.7986 6.03308L16.5991 6.62588L16.9036 6.72988" fill="white"/>
<path d="M16.7985 6.03308L16.998 6.62588L16.6935 6.72988" fill="white"/>
<path d="M17.3934 6.45476L16.765 6.4718L16.7733 6.77847" fill="white"/>
<path d="M17.3898 6.45925L16.9007 6.83319L16.6963 6.59512" fill="white"/>
<path d="M16.2074 6.45931L16.6965 6.83325L16.9009 6.59518" fill="white"/>
<path d="M16.2037 6.45482L16.8322 6.47186L16.8239 6.77853" fill="white"/>
<path d="M17.1695 7.16208L16.9773 6.56643L16.6702 6.65996" fill="white"/>
<path d="M17.1694 7.16164L16.656 6.79872L16.8392 6.53702" fill="white"/>
<path d="M16.4296 7.16347L16.9421 6.79633L16.7539 6.537" fill="white"/>
<path d="M16.4305 7.16269L16.6162 6.56648L16.9269 6.6568" fill="white"/>
<path d="M16.7989 3.53705L16.5994 4.12985L16.9039 4.23385" fill="white"/>
<path d="M16.7988 3.53705L16.9983 4.12985L16.6938 4.23385" fill="white"/>
<path d="M17.3937 3.95872L16.7652 3.97577L16.7736 4.28244" fill="white"/>
<path d="M17.39 3.96321L16.901 4.33716L16.6966 4.09908" fill="white"/>
<path d="M16.2076 3.96327L16.6967 4.33722L16.9011 4.09914" fill="white"/>
<path d="M16.204 3.95878L16.8324 3.97583L16.8241 4.2825" fill="white"/>
<path d="M17.1697 4.66605L16.9775 4.0704L16.6705 4.16393" fill="white"/>
<path d="M17.1697 4.66561L16.6562 4.30269L16.8395 4.04098" fill="white"/>
<path d="M16.4298 4.66744L16.9424 4.3003L16.7542 4.04096" fill="white"/>
<path d="M16.4308 4.66666L16.6165 4.07045L16.9272 4.16076" fill="white"/>
<path d="M16.7989 1.04108L16.5994 1.63388L16.9039 1.73788" fill="white"/>
<path d="M16.7988 1.04108L16.9983 1.63388L16.6938 1.73788" fill="white"/>
<path d="M17.3937 1.46275L16.7652 1.4798L16.7736 1.78646" fill="white"/>
<path d="M17.39 1.46724L16.901 1.84119L16.6966 1.60311" fill="white"/>
<path d="M16.2076 1.4673L16.6967 1.84125L16.9011 1.60317" fill="white"/>
<path d="M16.204 1.46281L16.8324 1.47986L16.8241 1.78652" fill="white"/>
<path d="M17.1697 2.17008L16.9775 1.57443L16.6705 1.66796" fill="white"/>
<path d="M17.1697 2.16964L16.6562 1.80672L16.8395 1.54501" fill="white"/>
<path d="M16.4298 2.17147L16.9424 1.80432L16.7542 1.54499" fill="white"/>
<path d="M16.4308 2.17069L16.6165 1.57448L16.9272 1.66479" fill="white"/>
<path d="M19.3189 6.03308L19.1194 6.62588L19.4239 6.72988" fill="white"/>
<path d="M19.3188 6.03308L19.5183 6.62588L19.2138 6.72988" fill="white"/>
<path d="M19.9139 6.45482L19.2855 6.47186L19.2938 6.77853" fill="white"/>
<path d="M19.91 6.45931L19.421 6.83325L19.2166 6.59518" fill="white"/>
<path d="M18.7279 6.45925L19.217 6.83319L19.4214 6.59512" fill="white"/>
<path d="M18.724 6.45476L19.3525 6.4718L19.3441 6.77847" fill="white"/>
<path d="M19.6897 7.16208L19.4975 6.56643L19.1905 6.65996" fill="white"/>
<path d="M19.6897 7.16164L19.1762 6.79872L19.3595 6.53702" fill="white"/>
<path d="M18.9498 7.16347L19.4624 6.79633L19.2742 6.537" fill="white"/>
<path d="M18.9508 7.16269L19.1365 6.56648L19.4472 6.6568" fill="white"/>
<path d="M19.3189 3.53705L19.1194 4.12985L19.4239 4.23385" fill="white"/>
<path d="M19.3188 3.53705L19.5183 4.12985L19.2138 4.23385" fill="white"/>
<path d="M19.9137 3.95872L19.2852 3.97577L19.2936 4.28244" fill="white"/>
<path d="M19.91 3.96321L19.421 4.33716L19.2166 4.09908" fill="white"/>
<path d="M18.7279 3.96321L19.217 4.33716L19.4214 4.09908" fill="white"/>
<path d="M18.724 3.95872L19.3525 3.97577L19.3441 4.28244" fill="white"/>
<path d="M19.6897 4.66605L19.4975 4.0704L19.1905 4.16393" fill="white"/>
<path d="M19.6897 4.66561L19.1762 4.30269L19.3595 4.04098" fill="white"/>
<path d="M18.9498 4.66744L19.4624 4.3003L19.2742 4.04096" fill="white"/>
<path d="M18.9508 4.66666L19.1365 4.07045L19.4472 4.16076" fill="white"/>
<path d="M19.3189 1.04108L19.1194 1.63388L19.4239 1.73788" fill="white"/>
<path d="M19.3188 1.04108L19.5183 1.63388L19.2138 1.73788" fill="white"/>
<path d="M19.9139 1.46281L19.2855 1.47986L19.2938 1.78652" fill="white"/>
<path d="M19.91 1.4673L19.421 1.84125L19.2166 1.60317" fill="white"/>
<path d="M18.7279 1.46724L19.217 1.84119L19.4214 1.60311" fill="white"/>
<path d="M18.724 1.46275L19.3525 1.4798L19.3441 1.78646" fill="white"/>
<path d="M19.6897 2.17008L19.4975 1.57443L19.1905 1.66796" fill="white"/>
<path d="M19.6897 2.16964L19.1762 1.80672L19.3595 1.54501" fill="white"/>
<path d="M18.9498 2.17147L19.4624 1.80432L19.2742 1.54499" fill="white"/>
<path d="M18.9508 2.17069L19.1365 1.57448L19.4472 1.66479" fill="white"/>
<path d="M9.23881 6.03308L9.03931 6.62588L9.34381 6.72988" fill="white"/>
<path d="M9.23873 6.03308L9.43823 6.62588L9.13373 6.72988" fill="white"/>
<path d="M9.83361 6.45476L9.20515 6.4718L9.2135 6.77847" fill="white"/>
<path d="M9.82997 6.45925L9.3409 6.83319L9.13649 6.59512" fill="white"/>
<path d="M8.64757 6.45931L9.13664 6.83325L9.34104 6.59518" fill="white"/>
<path d="M8.64393 6.45482L9.27239 6.47186L9.26404 6.77853" fill="white"/>
<path d="M9.60964 7.16208L9.41745 6.56643L9.1104 6.65996" fill="white"/>
<path d="M9.60959 7.16164L9.09617 6.79872L9.27943 6.53702" fill="white"/>
<path d="M8.86976 7.16347L9.38232 6.79633L9.1941 6.537" fill="white"/>
<path d="M8.87072 7.16269L9.0564 6.56648L9.36713 6.6568" fill="white"/>
<path d="M11.7588 6.03308L11.5593 6.62588L11.8638 6.72988" fill="white"/>
<path d="M11.7588 6.03308L11.9583 6.62588L11.6538 6.72988" fill="white"/>
<path d="M12.3536 6.45476L11.7252 6.4718L11.7335 6.77847" fill="white"/>
<path d="M12.35 6.45925L11.8609 6.83319L11.6565 6.59512" fill="white"/>
<path d="M11.1678 6.45925L11.6569 6.83319L11.8613 6.59512" fill="white"/>
<path d="M11.164 6.45476L11.7924 6.4718L11.7841 6.77847" fill="white"/>
<path d="M12.1297 7.16208L11.9375 6.56643L11.6304 6.65996" fill="white"/>
<path d="M12.1296 7.16164L11.6162 6.79872L11.7994 6.53702" fill="white"/>
<path d="M11.3898 7.16347L11.9023 6.79633L11.7141 6.537" fill="white"/>
<path d="M11.3907 7.16269L11.5764 6.56648L11.8871 6.6568" fill="white"/>
<path d="M11.7588 3.53705L11.5593 4.12985L11.8638 4.23385" fill="white"/>
<path d="M11.7588 3.53705L11.9583 4.12985L11.6538 4.23385" fill="white"/>
<path d="M12.3536 3.95872L11.7252 3.97577L11.7335 4.28244" fill="white"/>
<path d="M12.35 3.96321L11.8609 4.33716L11.6565 4.09908" fill="white"/>
<path d="M11.1678 3.96321L11.6569 4.33716L11.8613 4.09908" fill="white"/>
<path d="M11.164 3.95872L11.7924 3.97577L11.7841 4.28244" fill="white"/>
<path d="M12.1297 4.66605L11.9375 4.0704L11.6304 4.16393" fill="white"/>
<path d="M12.1296 4.66561L11.6162 4.30269L11.7994 4.04098" fill="white"/>
<path d="M11.3898 4.66744L11.9023 4.3003L11.7141 4.04096" fill="white"/>
<path d="M11.3907 4.66666L11.5764 4.07045L11.8871 4.16076" fill="white"/>
</g>
<defs>
<clipPath id="clip0_102_1865">
<rect width="35" height="26" fill="white"/>
</clipPath>
</defs>
</svg>
