<svg width="82" height="82" viewBox="0 0 82 82" fill="none" xmlns="http://www.w3.org/2000/svg">
<g clip-path="url(#clip0_92_687)">
<rect x="1" y="1" width="80" height="80" rx="40" fill="white"/>
<g clip-path="url(#clip1_92_687)">
<path d="M-10.9834 1H96.0166V82H-10.9834V1Z" fill="#3F9C35"/>
<path d="M-10.9834 1H96.0166V55H-10.9834V1Z" fill="#ED2939"/>
<path d="M-10.9834 1H96.0166V28H-10.9834V1Z" fill="#00B9E4"/>
<path d="M39.8251 53.65C46.4732 53.65 51.8626 48.2102 51.8626 41.5C51.8626 34.7897 46.4732 29.35 39.8251 29.35C33.177 29.35 27.7876 34.7897 27.7876 41.5C27.7876 48.2102 33.177 53.65 39.8251 53.65Z" fill="white"/>
<path d="M42.5 51.625C48.0401 51.625 52.5312 47.0919 52.5312 41.5C52.5312 35.9081 48.0401 31.375 42.5 31.375C36.9599 31.375 32.4688 35.9081 32.4688 41.5C32.4688 47.0919 36.9599 51.625 42.5 51.625Z" fill="#ED2939"/>
<path d="M53.2002 34.75L54.4875 38.3781L57.9316 36.7244L56.2932 40.2175L59.8877 41.5L56.2932 42.7994L57.9316 46.2756L54.4875 44.6219L53.2002 48.25L51.9128 44.6219L48.4688 46.2756L50.1072 42.7994L46.5127 41.5L50.1072 40.2006L48.4688 36.7244L51.9128 38.3781L53.2002 34.75Z" fill="white"/>
</g>
</g>
<rect x="0.5" y="0.5" width="81" height="81" rx="40.5" stroke="black" stroke-opacity="0.3"/>
<defs>
<clipPath id="clip0_92_687">
<rect x="1" y="1" width="80" height="80" rx="40" fill="white"/>
</clipPath>
<clipPath id="clip1_92_687">
<rect width="80" height="81" fill="white" transform="translate(1 1)"/>
</clipPath>
</defs>
</svg>
