<svg width="82" height="82" viewBox="0 0 82 82" fill="none" xmlns="http://www.w3.org/2000/svg">
<g clip-path="url(#clip0_92_682)">
<rect x="1" y="1" width="80" height="80" rx="40" fill="white"/>
<g clip-path="url(#clip1_92_682)">
<path d="M1 1H108V82H1V1Z" fill="#CE1720"/>
<mask id="mask0_92_682" style="mask-type:luminance" maskUnits="userSpaceOnUse" x="1" y="1" width="20" height="81">
<path d="M1.83594 1H19.5194V55.7197H20.2267V81.2795L19.5194 81.9995H1.83594V1Z" fill="white"/>
</mask>
<g mask="url(#mask0_92_682)">
<path d="M5.01902 1V2.25999H4.22326V3.51998H3.25067V4.95998H2.54334V6.12997H1.12866V3.15999H2.54334V1.54H1.12866V1H5.01902ZM7.31786 7.92996V9.27995H6.61052V10.3599H5.90319V9.27995H5.19585V7.92996H4.48851V6.12997H5.19585V4.77998H5.90319V3.69998H6.61052V4.77998H7.31786V6.12997H8.0252V7.92996H7.31786ZM5.81477 7.83996H6.69894V6.21997H5.81477V7.83996ZM3.51592 17.4699H4.22326V15.8499H3.51592V17.4699ZM8.29045 17.4699H8.99779V15.8499H8.29045V17.4699ZM1.12866 28.4498H2.3665V29.6198H2.897V31.0598H3.69276V32.4098H4.75376V31.0598H5.54952V29.6198H6.25685V28.4498H5.19585V27.0998H7.05261V27.9998H8.20203V29.5298H9.17462V31.2398H8.46728V32.4998H7.84836V33.6698H7.31786V34.9298H6.52211V36.0098H5.90319V36.9998H5.10743V38.2598H3.95801V36.9098H3.16226V35.6498H2.54334V34.8398H1.12866V32.7698H2.54334V30.9698H1.12866V28.4498Z" fill="white"/>
<path d="M16.3365 1V2.25999H17.1322V3.51998H18.1048V4.95998H18.8121V6.12997H20.2268V3.15999H18.8121V1.54H20.2268V1H16.3365ZM14.0376 7.92996V9.27995H14.7449V10.3599H15.4523V9.27995H16.1596V7.92996H16.867V6.12997H16.1596V4.77998H15.4523V3.69998H14.7449V4.77998H14.0376V6.12997H13.3303V7.92996H14.0376ZM15.5407 7.83996H14.6565V6.21997H15.5407V7.83996ZM17.8395 17.4699H17.1322V15.8499H17.8395V17.4699ZM13.065 17.4699H12.3577V15.8499H13.065V17.4699ZM20.2268 28.4498H18.989V29.6198H18.4585V31.0598H17.6627V32.4098H16.6017V31.0598H15.806V29.6198H15.0986V28.4498H16.1596V27.0998H14.3029V27.9998H13.1534V29.5298H12.1808V31.2398H12.8882V32.4998H13.5071V33.6698H14.0376V34.9298H14.8334V36.0098H15.4523V36.9998H16.248V38.2598H17.3975V36.9098H18.1932V35.6498H18.8121V34.8398H20.2268V32.7698H18.8121V30.9698H20.2268V28.4498Z" fill="white"/>
<path d="M10.324 1V3.87998H11.0314V1H13.8607V2.25999H13.1534V3.51998H12.0924V4.95998H11.385V6.12997H9.97037V4.95998H9.26304V3.51998H8.20203V2.25999H7.49469V1H10.324ZM10.1472 25.6598V24.6699H9.6167V23.4999H8.99778V22.2399H8.29045V20.9799H7.58311V20.0799H6.78736V18.8199H5.72635V20.0799H4.9306V20.9799H4.31168V22.2399H3.60434V23.4999H3.07384V24.6699H2.54334V26.1998H1.12866V22.2399H2.54334V20.4399H1.12866V17.4699H2.54334V18.7299H3.42751V19.9899H4.31168V18.7299H5.19585V17.4699H5.90319V15.8499H5.19585V14.5899H4.31168V13.3299H3.42751V14.5899H2.54334V15.8499H1.12866V12.1599H2.54334V10.4499H1.12866V7.92996H2.54334V9.09995H3.25067V10.5399H4.22326V11.7099H5.01901V13.0599H5.63793V14.1399H6.87577V13.0599H7.49469V11.7099H8.29045V10.5399H9.26304V9.09995H9.97037V7.92996H11.385V9.09995H12.0924V10.5399H13.065V11.7099H13.8607V13.0599H14.4796V14.1399H15.7175V13.0599H16.3364V11.7099H17.1322V10.5399H18.1047V9.09995H18.8121V7.92996H20.2268V10.4499H18.8121V12.1599H20.2268V15.8499H18.8121V14.5899H17.9279V13.3299H17.0437V14.5899H16.1596V15.8499H15.4522V17.4699H16.1596V18.7299H17.0437V19.9899H17.9279V18.7299H18.8121V17.4699H20.2268V20.4399H18.8121V22.2399H20.2268V26.1998H18.8121V24.6699H18.2816V23.4999H17.7511V22.2399H17.0437V20.9799H16.4248V20.0799H15.6291V18.8199H14.5681V20.0799H13.7723V20.9799H13.065V22.2399H12.3576V23.4999H11.7387V24.6699H11.2082V25.6598H10.1472ZM10.324 10.6299V13.0599H11.0314V10.6299H10.324ZM9.97037 15.8499V14.5899H9.0862V13.3299H8.20203V14.5899H7.31786V15.8499H6.61052V17.4699H7.31786V18.7299H8.20203V19.9899H9.0862V18.7299H9.97037V17.4699H11.385V18.7299H12.2692V19.9899H13.1534V18.7299H14.0376V17.4699H14.7449V15.8499H14.0376V14.5899H13.1534V13.3299H12.2692V14.5899H11.385V15.8499H9.97037ZM10.324 19.9899V22.4199H11.0314V19.9899H10.324Z" fill="white"/>
<path d="M5.01902 81.9995V80.7395H4.22326V79.4795H3.25067V78.0395H2.54334V76.8695H1.12866V79.8395H2.54334V81.4595H1.12866V81.9995H5.01902ZM7.31786 75.0696V73.7196H6.61052V72.6396H5.90319V73.7196H5.19585V75.0696H4.48851V76.8695H5.19585V78.2195H5.90319V79.2995H6.61052V78.2195H7.31786V76.8695H8.0252V75.0696H7.31786ZM5.81477 75.1596H6.69894V76.7795H5.81477V75.1596ZM3.51592 65.5296H4.22326V67.1496H3.51592V65.5296ZM8.29045 65.5296H8.99779V67.1496H8.29045V65.5296ZM1.12866 54.5497H2.3665V53.3797H2.897V51.9397H3.69276V50.5897H4.75376V51.9397H5.54952V53.3797H6.25685V54.5497H5.19585V55.8997H7.05261V54.9997H8.20203V53.4697H9.17462V51.7597H8.46728V50.4997H7.84836V49.3297H7.31786V48.0697H6.52211V46.9897H5.90319V45.9997H5.10743V44.7397H3.95801V46.0897H3.16226V47.3497H2.54334V48.1597H1.12866V50.2297H2.54334V52.0297H1.12866V54.5497Z" fill="white"/>
<path d="M16.3365 81.9995V80.7395H17.1322V79.4795H18.1048V78.0395H18.8121V76.8695H20.2268V79.8395H18.8121V81.4595H20.2268V81.9995H16.3365ZM14.0376 75.0696V73.7196H14.7449V72.6396H15.4523V73.7196H16.1596V75.0696H16.867V76.8695H16.1596V78.2195H15.4523V79.2995H14.7449V78.2195H14.0376V76.8695H13.3303V75.0696H14.0376ZM15.5407 75.1596H14.6565V76.7795H15.5407V75.1596ZM17.8395 65.5296H17.1322V67.1496H17.8395V65.5296ZM13.065 65.5296H12.3577V67.1496H13.065V65.5296ZM20.2268 54.5497H18.989V53.3797H18.4585V51.9397H17.6627V50.5897H16.6017V51.9397H15.806V53.3797H15.0986V54.5497H16.1596V55.8997H14.3029V54.9997H13.1534V53.4697H12.1808V51.7597H12.8882V50.4997H13.5071V49.3297H14.0376V48.0697H14.8334V46.9897H15.4523V45.9997H16.248V44.7397H17.3975V46.0897H18.1932V47.3497H18.8121V48.1597H20.2268V50.2297H18.8121V52.0297H20.2268V54.5497Z" fill="white"/>
<path d="M10.324 81.9995V79.1195H11.0314V81.9995H13.8607V80.7395H13.1534V79.4795H12.0924V78.0395H11.385V76.8695H9.97037V78.0395H9.26304V79.4795H8.20203V80.7395H7.49469V81.9995H10.324ZM10.1472 57.3397V58.3297H9.6167V59.4997H8.99778V60.7596H8.29045V62.0196H7.58311V62.9196H6.78736V64.1796H5.72635V62.9196H4.9306V62.0196H4.31168V60.7596H3.60434V59.4997H3.07384V58.3297H2.54334V56.7997H1.12866V60.7596H2.54334V62.5596H1.12866V65.5296H2.54334V64.2696H3.42751V63.0096H4.31168V64.2696H5.19585V65.5296H5.90319V67.1496H5.19585V68.4096H4.31168V69.6696H3.42751V68.4096H2.54334V67.1496H1.12866V70.8396H2.54334V72.5496H1.12866V75.0696H2.54334V73.8996H3.25067V72.4596H4.22326V71.2896H5.01901V69.9396H5.63793V68.8596H6.87577V69.9396H7.49469V71.2896H8.29045V72.4596H9.26304V73.8996H9.97037V75.0696H11.385V73.8996H12.0924V72.4596H13.065V71.2896H13.8607V69.9396H14.4796V68.8596H15.7175V69.9396H16.3364V71.2896H17.1322V72.4596H18.1047V73.8996H18.8121V75.0696H20.2268V72.5496H18.8121V70.8396H20.2268V67.1496H18.8121V68.4096H17.9279V69.6696H17.0437V68.4096H16.1596V67.1496H15.4522V65.5296H16.1596V64.2696H17.0437V63.0096H17.9279V64.2696H18.8121V65.5296H20.2268V62.5596H18.8121V60.7596H20.2268V56.7997H18.8121V58.3297H18.2816V59.4997H17.7511V60.7596H17.0437V62.0196H16.4248V62.9196H15.6291V64.1796H14.5681V62.9196H13.7723V62.0196H13.065V60.7596H12.3576V59.4997H11.7387V58.3297H11.2082V57.3397H10.1472ZM10.324 72.3696V69.9396H11.0314V72.3696H10.324ZM9.97037 67.1496V68.4096H9.0862V69.6696H8.20203V68.4096H7.31786V67.1496H6.61052V65.5296H7.31786V64.2696H8.20203V63.0096H9.0862V64.2696H9.97037V65.5296H11.385V64.2696H12.2692V63.0096H13.1534V64.2696H14.0376V65.5296H14.7449V67.1496H14.0376V68.4096H13.1534V69.6696H12.2692V68.4096H11.385V67.1496H9.97037ZM10.324 63.0096V60.5796H11.0314V63.0096H10.324Z" fill="white"/>
<path d="M1.12866 37.7198H2.54334V38.9798H3.16226V39.6998H3.86959V40.9598H4.48851V42.0397H3.86959V43.2997H3.16226V44.0197H2.54334V45.2797H1.12866V37.7198ZM20.2268 37.7198V45.2797H18.8121V44.0197H18.1932V43.2997H17.4858V42.0397H16.8669V40.9598H17.4858V39.6998H18.1932V38.9798H18.8121V37.7198H20.2268ZM7.31786 42.3097H8.0252V40.6898H7.31786V42.3097ZM14.0376 42.3097V40.6898H13.3302V42.3097H14.0376ZM10.324 36.9998H11.0314V35.3798H10.324V36.9998ZM10.324 45.9997V47.6197H11.0314V45.9997H10.324ZM5.90319 39.2498H7.14103V38.2598H8.0252V37.3598H8.46728V36.4598H8.99778V35.1998H9.70512V33.9398H10.0588V32.7698H11.2966V33.9398H11.6503V35.1998H12.3576V36.4598H12.8881V37.3598H13.3302V38.2598H14.2144V39.2498H15.4522V43.7497H14.2144V44.7397H13.3302V45.6397H12.8881V46.5397H12.3576V47.7997H11.6503V49.0597H11.2966V50.2297H10.0588V49.0597H9.70512V47.7997H8.99778V46.5397H8.46728V45.6397H8.0252V44.7397H7.14103V43.7497H5.90319V39.2498ZM10.324 40.0598V38.7098H9.6167V37.8098H8.90937V40.0598H9.6167V40.8698H10.0588V42.1297H9.6167V42.9397H8.90937V45.1897H9.6167V44.2897H10.324V42.9397H11.0314V44.2897H11.7387V45.1897H12.4461V42.9397H11.7387V42.1297H11.2966V40.8698H11.7387V40.0598H12.4461V37.8098H11.7387V38.7098H11.0314V40.0598H10.324Z" fill="white"/>
</g>
<path d="M19.3906 55H108V82H19.3906V55Z" fill="#007C30"/>
</g>
</g>
<rect x="0.5" y="0.5" width="81" height="81" rx="40.5" stroke="black" stroke-opacity="0.3"/>
<defs>
<clipPath id="clip0_92_682">
<rect x="1" y="1" width="80" height="80" rx="40" fill="white"/>
</clipPath>
<clipPath id="clip1_92_682">
<rect width="80" height="81" fill="white" transform="translate(1 1)"/>
</clipPath>
</defs>
</svg>
