<svg width="67" height="60" viewBox="0 0 67 60" fill="none" xmlns="http://www.w3.org/2000/svg">
<path d="M26.0152 4.97277C26.3347 4.64193 26.5115 4.19883 26.5075 3.7389C26.5035 3.27897 26.3191 2.83901 25.9938 2.51378C25.6686 2.18854 25.2286 2.00406 24.7687 2.00007C24.3088 1.99607 23.8657 2.17288 23.5348 2.49241L13.01 13.0173C12.6811 13.3462 12.4964 13.7923 12.4964 14.2574C12.4964 14.7226 12.6811 15.1687 13.01 15.4976L23.5348 26.0225C23.8657 26.342 24.3088 26.5188 24.7687 26.5148C25.2286 26.5108 25.6686 26.3264 25.9938 26.0011C26.3191 25.6759 26.5035 25.2359 26.5075 24.776C26.5115 24.3161 26.3347 23.873 26.0152 23.5421L18.4724 15.9993H45.8019C48.1281 15.9993 50.3589 16.9234 52.0038 18.5682C53.6486 20.213 54.5726 22.4439 54.5726 24.77V31.7866C54.5726 32.2518 54.7575 32.698 55.0864 33.027C55.4154 33.3559 55.8616 33.5407 56.3268 33.5407C56.792 33.5407 57.2382 33.3559 57.5672 33.027C57.8961 32.698 58.0809 32.2518 58.0809 31.7866V24.77C58.0809 17.999 52.5729 12.491 45.8019 12.491H18.4724L26.0152 4.94821V4.97277ZM12.5083 28.2888C12.5083 27.8236 12.3235 27.3774 11.9945 27.0485C11.6655 26.7195 11.2194 26.5347 10.7541 26.5347C10.2889 26.5347 9.84274 26.7195 9.51378 27.0485C9.18481 27.3774 9 27.8236 9 28.2888V35.3054C9 42.0764 14.508 47.5844 21.279 47.5844H48.6086L41.0657 55.1272C40.7462 55.4581 40.5694 55.9012 40.5734 56.3611C40.5774 56.821 40.7619 57.261 41.0871 57.5862C41.4123 57.9115 41.8523 58.0959 42.3122 58.0999C42.7722 58.1039 43.2153 57.9271 43.5461 57.6076L54.071 47.0827C54.3998 46.7538 54.5845 46.3077 54.5845 45.8426C54.5845 45.3774 54.3998 44.9313 54.071 44.6024L43.5461 34.0775C43.2153 33.758 42.7722 33.5812 42.3122 33.5852C41.8523 33.5892 41.4123 33.7736 41.0871 34.0989C40.7619 34.4241 40.5774 34.8641 40.5734 35.324C40.5694 35.7839 40.7462 36.227 41.0657 36.5579L48.6086 44.1007H21.279C18.9529 44.1007 16.722 43.1766 15.0772 41.5318C13.4323 39.887 12.5083 37.6561 12.5083 35.33V28.3134V28.2888Z" fill="black"/>
</svg>
