<svg width="36" height="35" viewBox="0 0 36 35" fill="none" xmlns="http://www.w3.org/2000/svg">
<path d="M27.5625 0H8.4375C3.7776 0 0 3.67266 0 8.20312V26.7969C0 31.3273 3.7776 35 8.4375 35H27.5625C32.2224 35 36 31.3273 36 26.7969V8.20312C36 3.67266 32.2224 0 27.5625 0Z" fill="url(#paint0_radial_153_7948)"/>
<path d="M27.5625 0H8.4375C3.7776 0 0 3.67266 0 8.20312V26.7969C0 31.3273 3.7776 35 8.4375 35H27.5625C32.2224 35 36 31.3273 36 26.7969V8.20312C36 3.67266 32.2224 0 27.5625 0Z" fill="url(#paint1_radial_153_7948)"/>
<path d="M18.0013 3.82812C14.1822 3.82812 13.7028 3.84439 12.2029 3.9107C10.7058 3.97742 9.68386 4.20779 8.78977 4.5459C7.86473 4.89508 7.08019 5.36225 6.29859 6.1224C5.5163 6.88242 5.03578 7.64518 4.6755 8.5441C4.32675 9.41363 4.08952 10.4076 4.02216 11.8624C3.95508 13.3208 3.9375 13.787 3.9375 17.5001C3.9375 21.2133 3.95438 21.6779 4.02244 23.1361C4.09134 24.5916 4.3283 25.5851 4.67578 26.4544C5.03522 27.3537 5.51573 28.1165 6.29761 28.8764C7.07906 29.6369 7.86361 30.1052 8.78794 30.4544C9.68273 30.7925 10.7048 31.0229 12.2016 31.0896C13.7017 31.1559 14.1806 31.1721 17.9996 31.1721C21.8191 31.1721 22.2969 31.1559 23.7968 31.0896C25.2939 31.0229 26.317 30.7925 27.2118 30.4544C28.1364 30.1052 28.9198 29.6369 29.7011 28.8764C30.4834 28.1165 30.9638 27.3537 31.3242 26.4548C31.6699 25.5851 31.9072 24.5913 31.9776 23.1364C32.0449 21.6781 32.0625 21.2133 32.0625 17.5001C32.0625 13.787 32.0449 13.3211 31.9776 11.8627C31.9072 10.4072 31.6699 9.41377 31.3242 8.54451C30.9638 7.64518 30.4834 6.88242 29.7011 6.1224C28.919 5.36197 28.1367 4.8948 27.2109 4.54604C26.3145 4.20779 25.292 3.97729 23.7949 3.9107C22.2948 3.84439 21.8173 3.82812 17.9969 3.82812H18.0013ZM16.7397 6.29193C17.1142 6.29139 17.532 6.29193 18.0013 6.29193C21.7561 6.29193 22.201 6.30506 23.6838 6.37055C25.0549 6.43152 25.7991 6.65424 26.2948 6.84141C26.9511 7.08914 27.4189 7.38541 27.9108 7.86406C28.403 8.34258 28.7076 8.79826 28.9631 9.43633C29.1556 9.91758 29.385 10.6411 29.4474 11.9741C29.5148 13.4154 29.5294 13.8482 29.5294 17.497C29.5294 21.1457 29.5148 21.5787 29.4474 23.0199C29.3847 24.3529 29.1556 25.0764 28.9631 25.5578C28.7083 26.1959 28.403 26.6502 27.9108 27.1284C27.4186 27.6069 26.9513 27.9031 26.2948 28.1509C25.7996 28.3389 25.0549 28.5611 23.6838 28.6221C22.2013 28.6876 21.7561 28.7018 18.0013 28.7018C14.2463 28.7018 13.8012 28.6876 12.3189 28.6221C10.9478 28.5605 10.2036 28.3378 9.70748 28.1507C9.05133 27.9028 8.58248 27.6067 8.0903 27.1281C7.59811 26.6496 7.29352 26.195 7.038 25.5567C6.84548 25.0753 6.61613 24.3518 6.55369 23.0188C6.48633 21.5775 6.47283 21.1446 6.47283 17.4936C6.47283 13.8425 6.48633 13.412 6.55369 11.9707C6.61641 10.6377 6.84548 9.91416 7.038 9.43223C7.29295 8.79416 7.59811 8.33848 8.09044 7.85996C8.58277 7.38145 9.05133 7.08518 9.70762 6.83689C10.2033 6.64891 10.9478 6.42674 12.3189 6.36549C13.6162 6.30848 14.1189 6.29139 16.7397 6.28852V6.29193ZM25.5078 8.56201C24.5762 8.56201 23.8203 9.29619 23.8203 10.2021C23.8203 11.1079 24.5762 11.8427 25.5078 11.8427C26.4395 11.8427 27.1953 11.1079 27.1953 10.2021C27.1953 9.29633 26.4395 8.56146 25.5078 8.56146V8.56201ZM18.0013 10.4789C14.0131 10.4789 10.7796 13.6227 10.7796 17.5001C10.7796 21.3776 14.0131 24.5198 18.0013 24.5198C21.9895 24.5198 25.2219 21.3776 25.2219 17.5001C25.2219 13.6228 21.9893 10.4789 18.001 10.4789H18.0013ZM18.0013 12.9428C20.59 12.9428 22.6889 14.983 22.6889 17.5001C22.6889 20.017 20.59 22.0575 18.0013 22.0575C15.4125 22.0575 13.3138 20.017 13.3138 17.5001C13.3138 14.983 15.4124 12.9428 18.0013 12.9428Z" fill="white"/>
<defs>
<radialGradient id="paint0_radial_153_7948" cx="0" cy="0" r="1" gradientUnits="userSpaceOnUse" gradientTransform="translate(9.5625 37.6957) rotate(-90) scale(34.6876 33.184)">
<stop stop-color="#FFDD55"/>
<stop offset="0.1" stop-color="#FFDD55"/>
<stop offset="0.5" stop-color="#FF543E"/>
<stop offset="1" stop-color="#C837AB"/>
</radialGradient>
<radialGradient id="paint1_radial_153_7948" cx="0" cy="0" r="1" gradientTransform="matrix(3.13024 15.204 -64.4618 12.5446 -6.03014 2.52123)" gradientUnits="userSpaceOnUse">
<stop stop-color="#3771C8"/>
<stop offset="0.128" stop-color="#3771C8"/>
<stop offset="1" stop-color="#6600FF" stop-opacity="0"/>
</radialGradient>
</defs>
</svg>
