<svg width="82" height="82" viewBox="0 0 82 82" fill="none" xmlns="http://www.w3.org/2000/svg">
<g clip-path="url(#clip0_92_685)">
<rect x="1" y="1" width="80" height="80" rx="40" fill="white"/>
<g clip-path="url(#clip1_92_685)">
<path d="M-18 1H89V82H-18V1Z" fill="#00ABC2"/>
<path d="M39.8134 45.9226C45.779 45.9226 50.615 41.0413 50.615 35.02C50.615 28.9986 45.779 24.1174 39.8134 24.1174C33.8478 24.1174 29.0117 28.9986 29.0117 35.02C29.0117 41.0413 33.8478 45.9226 39.8134 45.9226Z" fill="#FFEC2D"/>
<path d="M39.8134 22.6351C40.4554 22.627 40.6962 22.222 40.6962 21.736C40.6962 21.088 39.8134 18.0019 39.8134 18.0019C39.8134 18.0019 38.9307 21.088 38.9307 21.736C38.9307 22.222 39.1714 22.6351 39.8134 22.6351Z" fill="#FFEC2D"/>
<path d="M52.0835 35.02C52.0916 35.668 52.4928 35.911 52.9743 35.911C53.6163 35.911 56.6738 35.02 56.6738 35.02C56.6738 35.02 53.6163 34.129 52.9743 34.129C52.4928 34.129 52.0835 34.372 52.0835 35.02Z" fill="#FFEC2D"/>
<path d="M39.8133 47.4049C39.1713 47.413 38.9305 47.818 38.9305 48.304C38.9305 48.952 39.8133 52.0381 39.8133 52.0381C39.8133 52.0381 40.696 48.952 40.696 48.304C40.696 47.818 40.4553 47.4049 39.8133 47.4049Z" fill="#FFEC2D"/>
<path d="M27.5432 35.02C27.5352 34.372 27.1339 34.129 26.6524 34.129C26.0104 34.129 22.9529 35.02 22.9529 35.02C22.9529 35.02 26.0104 35.911 26.6524 35.911C27.1339 35.911 27.5432 35.668 27.5432 35.02Z" fill="#FFEC2D"/>
<path d="M44.4812 23.5564C45.0574 23.8125 45.4307 23.5409 45.6207 23.0964C45.8742 22.5038 46.2932 19.3187 46.2932 19.3187C46.2932 19.3187 44.2984 21.7789 44.045 22.3716C43.8549 22.8161 43.9082 23.2928 44.4812 23.5564Z" fill="#FFEC2D"/>
<path d="M51.1714 39.7258C50.9174 40.3032 51.1863 40.6794 51.6266 40.8724C52.2137 41.1298 55.3691 41.5663 55.3691 41.5663C55.3691 41.5663 52.9325 39.5509 52.3454 39.2935C51.9051 39.1004 51.4328 39.1516 51.1714 39.7258Z" fill="#FFEC2D"/>
<path d="M35.1455 46.4836C34.5693 46.2274 34.196 46.499 34.006 46.9435C33.7525 47.5362 33.3335 50.7212 33.3335 50.7212C33.3335 50.7212 35.3283 48.261 35.5817 47.6683C35.7718 47.2238 35.7185 46.7471 35.1455 46.4836Z" fill="#FFEC2D"/>
<path d="M28.4555 30.3142C28.7096 29.7368 28.4407 29.3606 28.0004 29.1675C27.4133 28.9101 24.2579 28.4737 24.2579 28.4737C24.2579 28.4737 26.6944 30.4891 27.2815 30.7465C27.7218 30.9395 28.1941 30.8883 28.4555 30.3142Z" fill="#FFEC2D"/>
<path d="M48.4899 26.2625C48.9496 26.715 49.4035 26.6004 49.744 26.2568C50.198 25.7986 51.7358 22.9863 51.7358 22.9863C51.7358 22.9863 48.9496 24.5385 48.4956 24.9967C48.1551 25.3404 48.036 25.8043 48.4899 26.2625Z" fill="#FFEC2D"/>
<path d="M48.4898 43.7774C48.0415 44.2413 48.155 44.6995 48.4955 45.0432C48.9495 45.5014 51.7357 47.0536 51.7357 47.0536C51.7357 47.0536 50.1979 44.2413 49.7439 43.7831C49.4034 43.4395 48.9438 43.3192 48.4898 43.7774Z" fill="#FFEC2D"/>
<path d="M31.137 43.7774C30.6774 43.3249 30.2234 43.4395 29.8829 43.7831C29.429 44.2413 27.8912 47.0536 27.8912 47.0536C27.8912 47.0536 30.6774 45.5014 31.1313 45.0432C31.4718 44.6995 31.591 44.2356 31.137 43.7774Z" fill="#FFEC2D"/>
<path d="M31.1371 26.2625C31.5854 25.7986 31.4719 25.3404 31.1314 24.9967C30.6775 24.5385 27.8913 22.9863 27.8913 22.9863C27.8913 22.9863 29.4291 25.7986 29.883 26.2568C30.2235 26.6004 30.6832 26.7207 31.1371 26.2625Z" fill="#FFEC2D"/>
<path d="M51.171 30.3142C51.4397 30.8851 51.9047 30.9395 52.345 30.7465C52.9321 30.4891 55.3687 28.4737 55.3687 28.4737C55.3687 28.4737 52.2133 28.9101 51.6262 29.1675C51.1859 29.3606 50.9096 29.74 51.171 30.3142Z" fill="#FFEC2D"/>
<path d="M44.4812 46.4836C43.9114 46.7545 43.8549 47.2238 44.0449 47.6683C44.2984 48.261 46.2932 50.7212 46.2932 50.7212C46.2932 50.7212 45.8741 47.5361 45.6207 46.9435C45.4306 46.499 45.0542 46.22 44.4812 46.4836Z" fill="#FFEC2D"/>
<path d="M28.4555 39.7258C28.1867 39.1548 27.7218 39.1004 27.2814 39.2934C26.6944 39.5508 24.2578 41.5662 24.2578 41.5662C24.2578 41.5662 27.4132 41.1298 28.0003 40.8724C28.4406 40.6793 28.7168 40.2999 28.4555 39.7258Z" fill="#FFEC2D"/>
<path d="M35.1453 23.5563C35.7151 23.2854 35.7716 22.8161 35.5815 22.3716C35.3281 21.7789 33.3333 19.3187 33.3333 19.3187C33.3333 19.3187 33.7524 22.5038 34.0058 23.0964C34.1958 23.5409 34.5723 23.8199 35.1453 23.5563Z" fill="#FFEC2D"/>
<path d="M42.1142 22.8167C42.6702 22.9784 42.9748 22.6551 43.0909 22.1907C43.2457 21.5716 43.2211 18.3902 43.2211 18.3902C43.2211 18.3902 41.7219 21.1056 41.5671 21.7247C41.451 22.189 41.5601 22.6472 42.1142 22.8167Z" fill="#FFEC2D"/>
<path d="M51.9221 37.3214C51.7485 37.8677 52.0608 38.173 52.517 38.2946C53.1253 38.4566 56.2712 38.48 56.2712 38.48C56.2712 38.48 53.6234 36.9599 53.0151 36.7978C52.5589 36.6763 52.1032 36.7771 51.9221 37.3214Z" fill="#FFEC2D"/>
<path d="M37.513 47.2232C36.957 47.0615 36.6524 47.3848 36.5363 47.8492C36.3815 48.4683 36.4061 51.6497 36.4061 51.6497C36.4061 51.6497 37.9053 48.9343 38.0601 48.3152C38.1762 47.8509 38.0671 47.3927 37.513 47.2232Z" fill="#FFEC2D"/>
<path d="M27.7051 32.7186C27.8787 32.1723 27.5664 31.8669 27.1102 31.7454C26.5019 31.5833 23.356 31.56 23.356 31.56C23.356 31.56 26.0038 33.08 26.6121 33.2421C27.0683 33.3636 27.524 33.2628 27.7051 32.7186Z" fill="#FFEC2D"/>
<path d="M46.5805 24.6739C47.0758 25.0674 47.4933 24.8904 47.7735 24.4979C48.1471 23.9747 49.2518 20.9326 49.2518 20.9326C49.2518 20.9326 46.7978 22.8746 46.4242 23.3978C46.144 23.7903 46.0898 24.2739 46.5805 24.6739Z" fill="#FFEC2D"/>
<path d="M50.0668 41.8388C49.6748 42.3306 49.8488 42.7509 50.2369 43.0361C50.7545 43.4164 53.7674 44.5579 53.7674 44.5579C53.7674 44.5579 51.8505 42.0771 51.333 41.6969C50.9448 41.4116 50.4654 41.3518 50.0668 41.8388Z" fill="#FFEC2D"/>
<path d="M33.0465 45.366C32.5512 44.9725 32.1336 45.1495 31.8534 45.542C31.4798 46.0652 30.3751 49.1073 30.3751 49.1073C30.3751 49.1073 32.8291 47.1654 33.2028 46.6421C33.483 46.2497 33.5372 45.7661 33.0465 45.366Z" fill="#FFEC2D"/>
<path d="M29.5601 28.2011C29.9522 27.7094 29.7782 27.2891 29.39 27.0038C28.8725 26.6236 25.8595 25.4821 25.8595 25.4821C25.8595 25.4821 27.7764 27.9628 28.294 28.3431C28.6821 28.6283 29.1615 28.6881 29.5601 28.2011Z" fill="#FFEC2D"/>
<path d="M49.9592 28.0657C50.2767 28.6606 50.738 28.6751 51.1517 28.4227C51.7033 28.0863 53.9034 25.6601 53.9034 25.6601C53.9034 25.6601 50.8491 26.4386 50.2975 26.775C49.8837 27.0274 49.6485 27.4665 49.9592 28.0657Z" fill="#FFEC2D"/>
<path d="M46.698 45.2564C46.1124 45.574 46.1006 46.0392 46.3517 46.4576C46.6865 47.0155 49.092 49.2455 49.092 49.2455C49.092 49.2455 48.3082 46.1613 47.9734 45.6034C47.7223 45.1849 47.2877 44.9457 46.698 45.2564Z" fill="#FFEC2D"/>
<path d="M29.668 41.9742C29.3505 41.3793 28.8892 41.3649 28.4755 41.6172C27.9238 41.9536 25.7238 44.3798 25.7238 44.3798C25.7238 44.3798 28.7781 43.6013 29.3297 43.2649C29.7435 43.0125 29.9787 42.5734 29.668 41.9742Z" fill="#FFEC2D"/>
<path d="M32.929 24.7835C33.5145 24.4659 33.5264 24.0007 33.2753 23.5823C32.9404 23.0244 30.535 20.7944 30.535 20.7944C30.535 20.7944 31.3187 23.8786 31.6536 24.4366C31.9047 24.855 32.3393 25.0942 32.929 24.7835Z" fill="#FFEC2D"/>
<path d="M51.7624 32.394C51.8316 33.1891 52.2634 33.4475 52.7541 33.3993C53.4084 33.3351 56.4404 31.9349 56.4404 31.9349C56.4404 31.9349 53.2405 31.1462 52.5863 31.2104C52.0956 31.2586 51.7014 31.598 51.7624 32.394Z" fill="#FFEC2D"/>
<path d="M42.3731 47.0558C41.6159 47.1078 41.3787 47.5412 41.4351 48.0417C41.5105 48.709 42.9117 51.8271 42.9117 51.8271C42.9117 51.8271 43.5954 48.5891 43.52 47.9218C43.4635 47.4213 43.1312 47.0123 42.3731 47.0558Z" fill="#FFEC2D"/>
<path d="M27.8643 37.6459C27.7951 36.8508 27.3633 36.5924 26.8726 36.6406C26.2183 36.7048 23.1863 38.1051 23.1863 38.1051C23.1863 38.1051 26.3862 38.8937 27.0404 38.8295C27.5311 38.7813 27.9253 38.4419 27.8643 37.6459Z" fill="#FFEC2D"/>
<path d="M37.2536 22.9841C38.0108 22.9322 38.2481 22.4988 38.1916 21.9983C38.1162 21.331 36.715 18.2128 36.715 18.2128C36.715 18.2128 36.0314 21.4508 36.1067 22.1181C36.1632 22.6186 36.4955 23.0277 37.2536 22.9841Z" fill="#FFEC2D"/>
<path d="M39.4429 54.055C39.162 54.5653 38.9935 55.1566 38.6404 55.6183C37.549 54.622 35.9761 54.6463 34.5958 54.5896C33.4562 54.5248 32.2204 54.4195 31.3376 53.6014C30.4147 52.8319 29.6524 51.8437 28.6252 51.22C27.6597 51.0107 26.7524 50.5874 25.9689 49.9807C24.3478 48.6442 23.4169 46.6597 21.828 45.2827C21.5311 44.9911 21.1699 44.7562 20.8329 44.5051C20.5119 44.5861 20.6563 45.2827 20.2631 44.9263C20.0464 44.7643 19.5088 44.7562 19.4606 44.9749C19.9421 45.6229 20.4316 46.3519 20.5039 47.1781C20.1668 47.2105 19.581 47.1052 19.4205 47.2267C19.8611 47.8947 20.4154 48.4788 21.0576 48.952C20.7526 49.0006 20.1508 48.9763 20.0304 49.0978C20.6312 49.6785 21.373 50.0891 22.1811 50.2885C22.3416 50.5153 21.9323 50.9527 22.2854 51.1471C22.486 51.2281 23.1601 51.3739 22.6947 51.6088C22.3737 51.8194 22.4941 52.3297 22.9033 52.3135C23.1601 52.4512 23.7379 52.4755 23.7861 52.7185C23.5534 52.9453 22.8472 53.2207 23.449 53.4475C24.0165 53.7721 24.6514 53.958 25.3028 53.9902C24.9818 54.2656 24.5806 54.4195 24.2515 54.6787C25.7362 55.5616 27.3813 56.1367 29.0184 56.7037C29.6604 56.9143 30.3265 57.1168 31.0006 57.2464C29.0425 57.133 27.1486 56.5498 25.367 55.7479C24.4468 55.3375 23.5159 54.9541 22.5743 54.5977C22.9836 54.379 23.4651 54.3223 23.8984 54.136C22.9996 53.9578 22.0286 53.893 21.2502 53.407C21.3625 53.1802 21.8119 53.1721 22.0687 53.0587C22.5502 52.9453 22.8391 52.8157 22.1731 52.7671C21.499 52.5808 20.7286 52.6618 20.1267 52.2568C20.1668 52.0138 20.7928 52.0948 21.0415 51.9895C21.3625 51.9328 21.7156 51.8842 21.9724 51.6655C20.9292 51.2362 19.5649 51.544 18.7464 50.6125C18.5618 50.2561 19.3322 50.5396 19.5489 50.4829C20.1106 50.4829 20.7125 50.6611 21.2502 50.4343C19.7254 49.762 18.0964 49.1383 16.9408 47.8909C16.8124 47.6884 16.4272 47.1376 16.7401 47.0728C17.6389 47.1943 18.289 48.1825 19.26 48.0286C19.3884 47.8585 18.6982 47.575 18.5217 47.3239C17.0697 46.1469 15.8033 44.754 14.766 43.1929C14.7018 42.6502 15.5284 42.5692 15.745 42.9823C16.8204 44.0353 17.7914 45.2503 19.1316 45.9631C19.6131 46.198 18.8587 45.6877 18.7624 45.5014C17.488 44.075 16.3862 42.5006 15.4802 40.8115C15.3197 40.5037 15.0709 39.9448 15.5364 39.7828C15.9938 39.5479 16.4593 39.8638 16.692 40.2688C17.5988 41.4271 18.2729 42.8041 19.4044 43.768C18.4414 41.8807 17.4062 39.88 17.3821 37.7092C17.4062 37.288 17.4303 36.6562 18.0001 36.6643C18.4816 36.5914 18.4013 37.207 18.5618 37.4986C19.0273 39.1024 19.2279 40.8358 20.1668 42.2452C19.9662 41.0626 19.6532 39.8395 19.8619 38.6326C19.91 38.2276 20.3434 38.1142 20.6403 38.3572C20.873 38.9242 20.9212 39.6451 21.1298 40.2607C22.3805 44.4537 25.0139 48.0891 28.5931 50.5639C31.5243 52.5869 34.9436 53.7709 38.4879 53.9902C38.8089 54.0172 39.1272 54.0361 39.4429 54.0469M50.389 61.426C49.8112 61.7824 49.3618 61.1506 48.8803 60.9643C48.5272 61.1587 48.4951 61.7905 48.1741 62.0983C47.7889 62.5438 47.3074 61.9687 47.3475 61.5313C46.882 61.9282 46.6493 62.8273 45.903 62.6977C45.5419 62.4061 45.277 61.7905 45.0042 62.4952C44.7875 62.8354 44.2017 63.3214 43.8887 62.803C43.7924 62.3494 43.5677 61.8148 43.327 62.5357C43.1504 63.0541 42.6047 63.4267 42.0911 63.1999C41.8022 62.965 42.3158 62.0902 41.9547 62.1469C41.409 62.5195 41.088 63.4186 40.3256 63.3457C40.0287 63.0217 40.5102 62.4466 40.1812 62.074C39.804 62.5681 39.3787 63.2971 38.7126 63.3457C38.3916 63.0865 38.7287 62.3332 38.52 62.2279C37.8459 62.6329 37.1236 63.37 36.273 63.1432C36.602 61.8472 37.9984 61.4017 39.162 61.3045C41.1763 61.0534 43.2949 61.5151 45.2369 60.778C45.5499 60.5836 46.3042 60.3163 46.0394 59.8708C45.7987 59.5144 46.6573 59.6521 46.7376 59.239C46.6894 58.7206 47.1388 58.7935 47.5722 58.753C49.5303 58.6639 51.4643 59.077 53.4144 59.1499C53.5588 60.1057 52.5076 60.778 51.6489 60.4864C51.2477 60.5512 50.6458 59.5468 50.7661 60.2758C50.6859 60.6646 50.734 61.1668 50.389 61.426ZM33.7451 59.4658C34.1945 59.8789 34.5155 59.3848 34.9408 59.1985C36.3298 58.6496 37.6347 57.9051 38.8169 56.9872C39.5552 56.3716 40.1972 55.5697 41.1923 55.3672C43.1344 54.7759 45.1968 54.8488 47.1388 54.298C48.6235 52.2568 51.1353 51.5197 53.2459 50.3452C53.7194 50.1994 53.9039 49.8025 54.0484 49.3732C54.8509 48.0853 55.9503 46.9513 57.2503 46.1737C57.8634 45.8065 58.587 45.6742 59.2887 45.8011C59.1948 46.6282 58.8036 47.392 58.1893 47.9476C58.6628 47.9395 59.072 47.6398 59.5375 47.656C59.698 48.5146 58.7831 48.9601 58.2936 49.4947C58.5664 49.5595 59.6097 49.6405 59.0399 49.9159C58.3177 50.4181 57.4911 50.7664 56.825 51.3577C57.443 51.4711 57.5152 51.6007 56.8892 51.8275C56.5441 52.0543 55.8941 52.1353 55.8299 52.5889C56.2954 52.8805 55.6213 53.1559 55.3564 53.2531C54.8589 53.3746 54.3292 53.5933 54.9953 53.9821C54.7465 54.3628 54.2008 54.4438 53.7595 54.4033C53.8959 54.8407 54.0885 55.3267 53.5348 55.5211C52.2921 56.511 50.8044 57.1385 49.2334 57.3355C51.1995 57.4813 53.2298 57.1168 54.907 56.0395C55.1317 55.7722 56.2954 55.4806 55.6453 55.2619C55.3404 55.1323 54.6823 54.9865 54.6342 54.7516C55.549 54.1846 56.6966 54.3871 57.6757 54.055C57.6997 53.731 56.9293 53.8201 56.6404 53.7472C55.9583 53.6905 55.9985 53.5123 56.6565 53.4475C57.4911 53.2207 58.4381 53.1802 59.1443 52.6375C58.5745 52.3621 57.8522 52.597 57.2423 52.3783C58.2775 51.9247 59.4974 51.8761 60.4283 51.1876C60.8536 50.7097 59.8825 50.8636 59.6017 50.8717C59.0319 50.977 58.7671 50.6935 59.4171 50.4586C60.5326 49.6243 61.937 49.0897 62.7234 47.8909C62.908 47.6236 63.1568 46.8136 62.5629 47.0971C61.7925 47.3644 61.1104 48.2392 60.2196 47.9719C61.969 46.603 63.6222 45.0559 64.8179 43.1686C64.8821 42.6178 64.0315 42.5611 63.8148 42.9904C62.6913 44.0758 61.6801 45.3637 60.2437 46.0522C61.5974 44.6855 62.7732 43.1503 63.7426 41.4838C63.9592 40.9978 64.529 40.4065 64.2241 39.8638C63.7185 39.4426 63.0926 39.8314 62.8358 40.3255C61.961 41.4757 61.303 42.8122 60.1875 43.7518C61.1585 41.8645 62.1777 39.8476 62.1938 37.6768C62.1938 37.2232 62.1135 36.559 61.5036 36.6481C61.0221 36.7291 61.1425 37.4581 60.9418 37.8226C60.5085 39.313 60.2998 40.9249 59.4171 42.2209C59.6177 41.014 59.9628 39.7504 59.698 38.5354C59.5696 37.9846 58.6948 38.2195 58.8152 38.7622C57.772 44.1001 54.2169 48.7657 49.5865 51.463C47.4598 52.678 45.0925 53.4556 42.6689 53.812C42.0269 53.9497 41.3207 53.8687 40.7028 54.0955C39.1941 55.2538 38.2873 57.2059 36.3853 57.8134C35.5267 58.2427 34.4192 58.3318 33.8093 59.1256C33.7612 59.2321 33.7391 59.3488 33.7451 59.4658ZM37.894 58.6315C37.6051 58.6423 37.3216 58.6882 37.0434 58.7692C36.6662 58.8259 36.3051 58.9555 35.9359 59.0122L35.7835 59.0446L35.5347 59.0689C35.5668 59.2047 35.5668 59.3462 35.5347 59.482C35.5086 59.5432 35.4704 59.5983 35.4223 59.644C35.3742 59.7088 35.3153 59.7574 35.2458 59.7898C35.1805 59.8221 35.1097 59.8414 35.0371 59.8465C34.9676 59.8519 34.8954 59.8411 34.8205 59.8141C34.7509 59.7925 34.684 59.752 34.6198 59.6926L34.3951 59.7331H34.1865L33.9618 59.6521L33.7531 59.5468C33.4803 59.7088 33.1753 59.8627 33.0068 60.1462C32.9285 60.2759 32.8843 60.4236 32.8784 60.5755C32.8677 60.7699 32.9052 60.9589 32.9908 61.1425C33.0229 61.1911 33.0469 60.9562 33.1352 60.9238C33.2957 60.7942 33.4749 60.7051 33.6729 60.6565C33.8334 60.5755 33.8093 60.6565 33.7451 60.7861C33.7291 60.859 33.6408 61.1101 33.7612 60.9805C34.3161 60.7712 34.9023 60.6589 35.4946 60.6484C36.3452 60.5674 37.1959 60.5269 38.0465 60.5269L40.454 60.5755C40.8392 60.5917 41.2244 60.6727 41.6016 60.6079C41.6899 60.5836 41.8343 60.5836 41.8905 60.5269C41.714 60.4297 41.5133 60.4216 41.3288 60.3973H39.796C39.3706 60.3568 38.9293 60.3487 38.528 60.1867C38.4157 60.1462 38.3194 60.0409 38.215 60.1543C38.0622 60.2093 37.9032 60.2447 37.7416 60.2596C37.458 60.2704 37.1852 60.2218 36.923 60.1138C37.1156 59.86 37.3216 59.617 37.5409 59.3848L37.0434 59.2795C37.3323 59.0635 37.6158 58.8475 37.894 58.6315Z" fill="#FFEC2D"/>
<path d="M34.9648 59.5873C35.0712 59.5873 35.1574 59.5002 35.1574 59.3929C35.1574 59.2855 35.0712 59.1985 34.9648 59.1985C34.8584 59.1985 34.7722 59.2855 34.7722 59.3929C34.7722 59.5002 34.8584 59.5873 34.9648 59.5873Z" fill="#FFEC2D"/>
<path d="M34.9489 59.4414C34.9932 59.4414 35.0292 59.4052 35.0292 59.3604C35.0292 59.3157 34.9932 59.2794 34.9489 59.2794C34.9046 59.2794 34.8687 59.3157 34.8687 59.3604C34.8687 59.4052 34.9046 59.4414 34.9489 59.4414Z" fill="#FFEC2D" stroke="#FFEC2D" stroke-width="0.024"/>
</g>
</g>
<rect x="0.5" y="0.5" width="81" height="81" rx="40.5" stroke="black" stroke-opacity="0.3"/>
<defs>
<clipPath id="clip0_92_685">
<rect x="1" y="1" width="80" height="80" rx="40" fill="white"/>
</clipPath>
<clipPath id="clip1_92_685">
<rect width="80" height="81" fill="white" transform="translate(1 1)"/>
</clipPath>
</defs>
</svg>
