<svg width="82" height="82" viewBox="0 0 82 82" fill="none" xmlns="http://www.w3.org/2000/svg">
<g clip-path="url(#clip0_92_686)">
<rect x="1" y="1" width="80" height="80" rx="40" fill="white"/>
<g clip-path="url(#clip1_92_686)">
<path d="M1 55H108V82H1V55Z" fill="#1EB53A"/>
<path d="M1 1H108V28H1V1Z" fill="#0099B5"/>
<path d="M1 26.92H108V56.08H1V26.92Z" fill="#CE1126"/>
<path d="M1 28.54H108V54.46H1V28.54Z" fill="white"/>
<path d="M23.4701 23.68C28.7886 23.68 33.1001 19.3282 33.1001 13.96C33.1001 8.5918 28.7886 4.24001 23.4701 4.24001C18.1516 4.24001 13.8401 8.5918 13.8401 13.96C13.8401 19.3282 18.1516 23.68 23.4701 23.68Z" fill="white"/>
<path d="M26.6801 23.68C31.9986 23.68 36.31 19.3282 36.31 13.96C36.31 8.5918 31.9986 4.24001 26.6801 4.24001C21.3615 4.24001 17.05 8.5918 17.05 13.96C17.05 19.3282 21.3615 23.68 26.6801 23.68Z" fill="#0099B5"/>
<path d="M44.6526 19.7954L44.0427 21.6422L44.9736 21.9662" fill="white"/>
<path d="M44.6526 19.7954L45.2625 21.6422L44.3316 21.9662" fill="white"/>
<path d="M46.4726 21.1055L44.5506 21.1669L44.5717 22.1176" fill="white"/>
<path d="M46.4623 21.1212L44.9614 22.2873L44.3398 21.5519" fill="white"/>
<path d="M42.8429 21.1212L44.3437 22.2873L44.9654 21.5519" fill="white"/>
<path d="M42.8324 21.1055L44.7544 21.1669L44.7332 22.1176" fill="white"/>
<path d="M45.7852 23.3109L45.202 21.4556L44.2608 21.75" fill="white"/>
<path d="M45.7849 23.3097L44.2159 22.1829L44.7794 21.3655" fill="white"/>
<path d="M43.5231 23.3185L45.0906 22.1716L44.5179 21.3655" fill="white"/>
<path d="M43.5252 23.3155L44.0964 21.4576L45.0444 21.7366" fill="white"/>
<path d="M44.6526 12.0194L44.0427 13.8662L44.9736 14.1902" fill="white"/>
<path d="M44.6526 12.0194L45.2625 13.8662L44.3316 14.1902" fill="white"/>
<path d="M46.4726 13.3295L44.5506 13.3909L44.5717 14.3416" fill="white"/>
<path d="M46.4623 13.3452L44.9614 14.5113L44.3398 13.7759" fill="white"/>
<path d="M42.8429 13.3452L44.3437 14.5113L44.9654 13.7759" fill="white"/>
<path d="M42.8324 13.3295L44.7544 13.3909L44.7332 14.3416" fill="white"/>
<path d="M45.7852 15.5349L45.202 13.6796L44.2608 13.974" fill="white"/>
<path d="M45.7849 15.5337L44.2159 14.4069L44.7794 13.5895" fill="white"/>
<path d="M43.5231 15.5425L45.0906 14.3956L44.5179 13.5895" fill="white"/>
<path d="M43.5252 15.5395L44.0964 13.6816L45.0444 13.9606" fill="white"/>
<path d="M44.6526 4.24338L44.0427 6.09018L44.9736 6.41418" fill="white"/>
<path d="M44.6526 4.24338L45.2625 6.09018L44.3316 6.41418" fill="white"/>
<path d="M46.4726 5.55352L44.5506 5.61488L44.5717 6.5656" fill="white"/>
<path d="M46.4623 5.56921L44.9614 6.73526L44.3398 5.99988" fill="white"/>
<path d="M42.8429 5.56922L44.3437 6.73527L44.9654 5.99989" fill="white"/>
<path d="M42.8324 5.55352L44.7544 5.61488L44.7332 6.5656" fill="white"/>
<path d="M45.7852 7.75885L45.202 5.90363L44.2608 6.19796" fill="white"/>
<path d="M45.7849 7.75773L44.2159 6.63094L44.7794 5.81345" fill="white"/>
<path d="M43.5231 7.76647L45.0906 6.61959L44.5179 5.81345" fill="white"/>
<path d="M43.5252 7.76347L44.0964 5.90564L45.0444 6.18464" fill="white"/>
<path d="M52.3567 19.7954L51.7468 21.6422L52.6777 21.9662" fill="white"/>
<path d="M52.3567 19.7954L52.9666 21.6422L52.0357 21.9662" fill="white"/>
<path d="M54.1767 21.1055L52.2547 21.1669L52.2758 22.1176" fill="white"/>
<path d="M54.1664 21.1212L52.6655 22.2873L52.0439 21.5519" fill="white"/>
<path d="M50.547 21.1212L52.0478 22.2873L52.6695 21.5519" fill="white"/>
<path d="M50.5365 21.1055L52.4585 21.1669L52.4373 22.1176" fill="white"/>
<path d="M53.4893 23.3109L52.9061 21.4556L51.9649 21.75" fill="white"/>
<path d="M53.489 23.3097L51.92 22.1829L52.4835 21.3655" fill="white"/>
<path d="M51.2272 23.3185L52.7947 22.1716L52.222 21.3655" fill="white"/>
<path d="M51.2293 23.3155L51.8005 21.4576L52.7485 21.7366" fill="white"/>
<path d="M52.3567 12.0194L51.7468 13.8662L52.6777 14.1902" fill="white"/>
<path d="M52.3567 12.0194L52.9666 13.8662L52.0357 14.1902" fill="white"/>
<path d="M54.1767 13.3295L52.2547 13.3909L52.2758 14.3416" fill="white"/>
<path d="M54.1664 13.3452L52.6655 14.5113L52.0439 13.7759" fill="white"/>
<path d="M50.547 13.3452L52.0478 14.5113L52.6695 13.7759" fill="white"/>
<path d="M50.5365 13.3295L52.4585 13.3909L52.4373 14.3416" fill="white"/>
<path d="M53.4893 15.5349L52.9061 13.6796L51.9649 13.974" fill="white"/>
<path d="M53.489 15.5337L51.92 14.4069L52.4835 13.5895" fill="white"/>
<path d="M51.2272 15.5425L52.7947 14.3956L52.222 13.5895" fill="white"/>
<path d="M51.2293 15.5395L51.8005 13.6816L52.7485 13.9606" fill="white"/>
<path d="M52.3567 4.24338L51.7468 6.09018L52.6777 6.41418" fill="white"/>
<path d="M52.3567 4.24338L52.9666 6.09018L52.0357 6.41418" fill="white"/>
<path d="M54.1767 5.55352L52.2547 5.61488L52.2758 6.5656" fill="white"/>
<path d="M54.1664 5.56921L52.6655 6.73526L52.0439 5.99988" fill="white"/>
<path d="M50.547 5.56922L52.0478 6.73527L52.6695 5.99989" fill="white"/>
<path d="M50.5365 5.55352L52.4585 5.61488L52.4373 6.5656" fill="white"/>
<path d="M53.4893 7.75885L52.9061 5.90363L51.9649 6.19796" fill="white"/>
<path d="M53.489 7.75773L51.92 6.63094L52.4835 5.81345" fill="white"/>
<path d="M51.2272 7.76647L52.7947 6.61959L52.222 5.81345" fill="white"/>
<path d="M51.2293 7.76347L51.8005 5.90564L52.7485 6.18464" fill="white"/>
<path d="M60.0606 19.7954L59.4507 21.6422L60.3816 21.9662" fill="white"/>
<path d="M60.0605 19.7954L60.6704 21.6422L59.7395 21.9662" fill="white"/>
<path d="M61.8805 21.1055L59.9585 21.1669L59.9797 22.1176" fill="white"/>
<path d="M61.8702 21.1212L60.3694 22.2873L59.7477 21.5519" fill="white"/>
<path d="M58.2509 21.1212L59.7517 22.2873L60.3734 21.5519" fill="white"/>
<path d="M58.2403 21.1055L60.1623 21.1669L60.1411 22.1176" fill="white"/>
<path d="M61.1931 23.3109L60.6099 21.4556L59.6688 21.75" fill="white"/>
<path d="M61.1929 23.3097L59.6238 22.1829L60.1874 21.3655" fill="white"/>
<path d="M58.9311 23.3185L60.4985 22.1716L59.9258 21.3655" fill="white"/>
<path d="M58.9332 23.3155L59.5044 21.4576L60.4523 21.7366" fill="white"/>
<path d="M60.0606 12.0194L59.4507 13.8662L60.3816 14.1902" fill="white"/>
<path d="M60.0605 12.0194L60.6704 13.8662L59.7395 14.1902" fill="white"/>
<path d="M61.8805 13.3295L59.9585 13.3909L59.9797 14.3416" fill="white"/>
<path d="M61.8702 13.3452L60.3694 14.5113L59.7477 13.7759" fill="white"/>
<path d="M58.2509 13.3452L59.7517 14.5113L60.3734 13.7759" fill="white"/>
<path d="M58.2403 13.3295L60.1623 13.3909L60.1411 14.3416" fill="white"/>
<path d="M61.1931 15.5349L60.6099 13.6796L59.6688 13.974" fill="white"/>
<path d="M61.1929 15.5337L59.6238 14.4069L60.1874 13.5895" fill="white"/>
<path d="M58.9311 15.5425L60.4985 14.3956L59.9258 13.5895" fill="white"/>
<path d="M58.9332 15.5395L59.5044 13.6816L60.4523 13.9606" fill="white"/>
<path d="M60.0606 4.24338L59.4507 6.09018L60.3816 6.41418" fill="white"/>
<path d="M60.0605 4.24338L60.6704 6.09018L59.7395 6.41418" fill="white"/>
<path d="M61.8805 5.55352L59.9585 5.61488L59.9797 6.5656" fill="white"/>
<path d="M61.8702 5.56921L60.3694 6.73526L59.7477 5.99988" fill="white"/>
<path d="M58.2509 5.56922L59.7517 6.73527L60.3734 5.99989" fill="white"/>
<path d="M58.2403 5.55352L60.1623 5.61488L60.1411 6.5656" fill="white"/>
<path d="M61.1931 7.75885L60.6099 5.90363L59.6688 6.19796" fill="white"/>
<path d="M61.1929 7.75773L59.6238 6.63094L60.1874 5.81345" fill="white"/>
<path d="M58.9311 7.76647L60.4985 6.61959L59.9258 5.81345" fill="white"/>
<path d="M58.9332 7.76347L59.5044 5.90564L60.4523 6.18464" fill="white"/>
<path d="M29.2447 19.7954L28.6348 21.6422L29.5657 21.9662" fill="white"/>
<path d="M29.2446 19.7954L29.8545 21.6422L28.9236 21.9662" fill="white"/>
<path d="M31.0646 21.1055L29.1426 21.1669L29.1638 22.1176" fill="white"/>
<path d="M31.0543 21.1212L29.5535 22.2873L28.9318 21.5519" fill="white"/>
<path d="M27.435 21.1212L28.9358 22.2873L29.5575 21.5519" fill="white"/>
<path d="M27.4244 21.1055L29.3464 21.1669L29.3252 22.1176" fill="white"/>
<path d="M30.3772 23.3109L29.794 21.4556L28.8529 21.75" fill="white"/>
<path d="M30.377 23.3097L28.8079 22.1829L29.3715 21.3655" fill="white"/>
<path d="M28.1151 23.3185L29.6826 22.1716L29.1099 21.3655" fill="white"/>
<path d="M28.1173 23.3155L28.6885 21.4576L29.6364 21.7366" fill="white"/>
<path d="M36.9488 19.7954L36.3389 21.6422L37.2698 21.9662" fill="white"/>
<path d="M36.9487 19.7954L37.5586 21.6422L36.6277 21.9662" fill="white"/>
<path d="M38.7687 21.1055L36.8467 21.1669L36.8679 22.1176" fill="white"/>
<path d="M38.7584 21.1212L37.2576 22.2873L36.6359 21.5519" fill="white"/>
<path d="M35.1391 21.1212L36.6399 22.2873L37.2616 21.5519" fill="white"/>
<path d="M35.1285 21.1055L37.0505 21.1669L37.0293 22.1176" fill="white"/>
<path d="M38.0813 23.3109L37.4981 21.4556L36.557 21.75" fill="white"/>
<path d="M38.0811 23.3097L36.512 22.1829L37.0756 21.3655" fill="white"/>
<path d="M35.8192 23.3185L37.3867 22.1716L36.814 21.3655" fill="white"/>
<path d="M35.8214 23.3155L36.3926 21.4576L37.3405 21.7366" fill="white"/>
<path d="M36.9488 12.0194L36.3389 13.8662L37.2698 14.1902" fill="white"/>
<path d="M36.9487 12.0194L37.5586 13.8662L36.6277 14.1902" fill="white"/>
<path d="M38.7687 13.3295L36.8467 13.3909L36.8679 14.3416" fill="white"/>
<path d="M38.7584 13.3452L37.2576 14.5113L36.6359 13.7759" fill="white"/>
<path d="M35.1391 13.3452L36.6399 14.5113L37.2616 13.7759" fill="white"/>
<path d="M35.1285 13.3295L37.0505 13.3909L37.0293 14.3416" fill="white"/>
<path d="M38.0813 15.5349L37.4981 13.6796L36.557 13.974" fill="white"/>
<path d="M38.0811 15.5337L36.512 14.4069L37.0756 13.5895" fill="white"/>
<path d="M35.8192 15.5425L37.3867 14.3956L36.814 13.5895" fill="white"/>
<path d="M35.8214 15.5395L36.3926 13.6816L37.3405 13.9606" fill="white"/>
</g>
</g>
<rect x="0.5" y="0.5" width="81" height="81" rx="40.5" stroke="black" stroke-opacity="0.3"/>
<defs>
<clipPath id="clip0_92_686">
<rect x="1" y="1" width="80" height="80" rx="40" fill="white"/>
</clipPath>
<clipPath id="clip1_92_686">
<rect width="80" height="81" fill="white" transform="translate(1 1)"/>
</clipPath>
</defs>
</svg>
