<svg width="44" height="44" viewBox="0 0 44 44" fill="none" xmlns="http://www.w3.org/2000/svg">
<g clip-path="url(#clip0_165_13348)">
<path d="M0.93875 21.095C0.937719 24.8207 1.91122 28.4587 3.76231 31.6652L0.761719 42.6208L11.9735 39.6811C15.0745 41.3692 18.549 42.2538 22.0797 42.254H22.089C33.7447 42.254 43.2327 32.7694 43.2377 21.1117C43.2399 15.4627 41.042 10.1507 37.0487 6.15426C33.056 2.15817 27.7459 -0.0437247 22.0881 -0.0463028C10.4311 -0.0463028 0.943734 9.43776 0.938922 21.095" fill="url(#paint0_linear_165_13348)"/>
<path d="M0.183906 21.7299C0.182703 25.5597 1.19109 29.2985 3.10819 32.5941L0 43.8545L11.6138 40.833C14.8137 42.5642 18.4166 43.4769 22.0827 43.4783H22.0921C34.166 43.4783 43.9948 33.7287 44 21.7473C44.0021 15.9406 41.7251 10.4804 37.5891 6.37284C33.4525 2.26583 27.9525 0.0023876 22.0921 0C10.0162 0 0.188719 9.74822 0.183906 21.7299ZM7.10033 32.0265L6.66669 31.3435C4.84378 28.4675 3.88162 25.144 3.883 21.7312C3.88678 11.7724 12.055 3.67008 22.099 3.67008C26.9631 3.67212 31.5343 5.55355 34.9724 8.96713C38.4105 12.3811 40.3023 16.9192 40.3011 21.7459C40.2966 31.7047 32.1283 39.8081 22.0921 39.8081H22.0849C18.817 39.8064 15.6121 38.9356 12.8171 37.29L12.1519 36.8986L5.26006 38.6915L7.10033 32.0265Z" fill="url(#paint1_linear_165_13348)"/>
<path d="M16.6164 12.6454C16.2063 11.741 15.7747 11.7228 15.3847 11.7069C15.0654 11.6933 14.7003 11.6943 14.3356 11.6943C13.9705 11.6943 13.3774 11.8305 12.876 12.3737C12.3741 12.9174 10.96 14.2313 10.96 16.9035C10.96 19.5757 12.9216 22.1584 13.195 22.5212C13.4688 22.8832 16.9819 28.5425 22.5459 30.7197C27.17 32.529 28.111 32.1691 29.1146 32.0784C30.1184 31.988 32.3534 30.7649 32.8094 29.4965C33.2657 28.2284 33.2657 27.1413 33.1289 26.9142C32.9921 26.6879 32.627 26.552 32.0796 26.2804C31.5322 26.0089 28.8408 24.6947 28.3391 24.5135C27.8372 24.3323 27.4723 24.242 27.1073 24.7858C26.7422 25.3288 25.6939 26.552 25.3744 26.9142C25.0553 27.2773 24.7357 27.3225 24.1885 27.0508C23.6407 26.7783 21.8778 26.2054 19.7863 24.3552C18.1589 22.9155 17.0603 21.1376 16.741 20.5937C16.4216 20.0507 16.7068 19.7563 16.9813 19.4857C17.2272 19.2423 17.5289 18.8514 17.8028 18.5344C18.0758 18.2172 18.1669 17.9909 18.3494 17.6286C18.5321 17.2661 18.4406 16.9489 18.304 16.6772C18.1669 16.4055 17.1031 13.7193 16.6164 12.6454Z" fill="white"/>
</g>
<defs>
<linearGradient id="paint0_linear_165_13348" x1="2124.56" y1="4266.66" x2="2124.56" y2="-0.0463028" gradientUnits="userSpaceOnUse">
<stop stop-color="#1FAF38"/>
<stop offset="1" stop-color="#60D669"/>
</linearGradient>
<linearGradient id="paint1_linear_165_13348" x1="2200" y1="4385.45" x2="2200" y2="0" gradientUnits="userSpaceOnUse">
<stop stop-color="#F9F9F9"/>
<stop offset="1" stop-color="white"/>
</linearGradient>
<clipPath id="clip0_165_13348">
<rect width="44" height="44" fill="white"/>
</clipPath>
</defs>
</svg>
